<svg version="1.1" xmlns="http://www.w3.org/2000/svg" viewBox="0 0 1019.4010369282596 602.3580702429665" width="2038.8020738565192" height="1204.716140485933">
  <!-- svg-source:excalidraw -->
  
  <defs>
    <style class="style-fonts">
      @font-face {
        font-family: "Virgil";
        src: url("https://excalidraw.com/Virgil.woff2");
      }
      @font-face {
        font-family: "Cascadia";
        src: url("https://excalidraw.com/Cascadia.woff2");
      }
      @font-face {
        font-family: "Assistant";
        src: url("https://excalidraw.com/Assistant-Regular.woff2");
      }
    </style>
    
  </defs>
  <rect x="0" y="0" width="1019.4010369282596" height="602.3580702429665" fill="#ffffff"></rect><g stroke-opacity="0" fill-opacity="0" stroke-linecap="round" transform="translate(33.549628953698004 227.69816060379122) rotate(0 48.30050666938908 48.30050666938908)"><path d="M18.87 9.78 C18.87 9.78, 18.87 9.78, 18.87 9.78 M18.87 9.78 C18.87 9.78, 18.87 9.78, 18.87 9.78 M4.83 32.02 C11.12 24.45, 16.63 20.93, 27.14 6.36 M4.83 32.02 C12.59 22.5, 20.92 14.61, 27.14 6.36 M3.26 39.93 C16.63 23.27, 30.29 8.49, 36.06 2.2 M3.26 39.93 C15.88 24.69, 28.7 10.44, 36.06 2.2 M2.34 47.08 C15.93 30.74, 29.34 16.04, 42.36 1.05 M2.34 47.08 C11.53 36.3, 19.86 25.87, 42.36 1.05 M1.42 54.24 C14.6 41.38, 24.3 28.27, 47.35 1.41 M1.42 54.24 C9.69 44.06, 20.66 32.31, 47.35 1.41 M3.13 58.37 C16.14 42.52, 31.63 24.35, 52.33 1.77 M3.13 58.37 C18.74 40.51, 34.71 22.2, 52.33 1.77 M4.83 62.5 C18.47 50, 29.54 33.43, 56.66 2.88 M4.83 62.5 C23.18 41.83, 43.02 21.26, 56.66 2.88 M6.54 66.64 C20.48 49.72, 35.74 35.05, 61.65 3.24 M6.54 66.64 C22.37 48.06, 38.77 29.38, 61.65 3.24 M8.25 70.77 C22.89 55.3, 34.76 40.06, 65.98 4.36 M8.25 70.77 C30.53 43.19, 52.81 18.38, 65.98 4.36 M9.95 74.9 C31.36 52.52, 48.38 26.38, 69.66 6.23 M9.95 74.9 C25.46 58.02, 40.4 40.61, 69.66 6.23 M11.66 79.04 C32.48 54.76, 56.06 28.53, 72.67 8.85 M11.66 79.04 C27.28 62.55, 42.24 44.8, 72.67 8.85 M15.34 80.91 C29.18 65.51, 43.26 45.74, 76.35 10.72 M15.34 80.91 C37.9 53.15, 62.42 26.46, 76.35 10.72 M18.36 83.53 C34.48 67.03, 48.03 48.99, 79.37 13.34 M18.36 83.53 C41.15 57.2, 66.59 28.28, 79.37 13.34 M21.37 86.16 C39.71 64.78, 54.06 45.94, 83.04 15.21 M21.37 86.16 C40 63.95, 59.01 41.11, 83.04 15.21 M25.05 88.03 C38.2 71.24, 52.69 56.21, 86.06 17.84 M25.05 88.03 C39.97 70.75, 54.32 55.12, 86.06 17.84 M28.07 90.65 C48.61 66.48, 70.8 43.2, 87.77 21.97 M28.07 90.65 C45.3 69.5, 64.81 48.36, 87.77 21.97 M31.74 92.52 C51.93 69.71, 72.68 49.55, 89.48 26.1 M31.74 92.52 C53.92 68.17, 75.09 43.94, 89.48 26.1 M36.07 93.63 C54.36 69.5, 74.49 46.32, 91.18 30.24 M36.07 93.63 C51.81 75.9, 67.57 57.43, 91.18 30.24 M41.06 93.99 C57.84 73.84, 69.71 58.83, 92.89 34.37 M41.06 93.99 C58.56 74.87, 74.94 56.11, 92.89 34.37 M46.05 94.35 C54.99 81.19, 65.94 71.97, 94.6 38.51 M46.05 94.35 C57.58 80.75, 69.78 65.84, 94.6 38.51 M51.03 94.71 C68.02 78.75, 82.76 57.76, 96.3 42.64 M51.03 94.71 C68.89 74.84, 84.92 55.33, 96.3 42.64 M55.37 95.83 C69.4 79.75, 84.68 61.64, 95.39 49.79 M55.37 95.83 C63.8 85.5, 74.53 75.03, 95.39 49.79 M63.63 92.42 C74.94 78.96, 85.06 64.68, 95.12 56.19 M63.63 92.42 C75.92 77.37, 87.58 65.21, 95.12 56.19 M72.56 88.25 C82.57 76.83, 90.66 67.63, 94.21 63.34 M72.56 88.25 C78.97 80.03, 87.04 72.47, 94.21 63.34 M10.68 77.65 C10.68 77.65, 10.68 77.65, 10.68 77.65 M10.68 77.65 C10.68 77.65, 10.68 77.65, 10.68 77.65 M33.68 92.34 C27.15 88.24, 20.97 81.12, 7.26 69.38 M33.68 92.34 C25.62 86.48, 18.39 80.28, 7.26 69.38 M40.83 93.26 C28.32 84.79, 15.55 72.82, 3.85 61.11 M40.83 93.26 C32.02 85.43, 21.93 76.42, 3.85 61.11 M47.98 94.18 C33.68 80.97, 22.18 69.57, 1.19 53.5 M47.98 94.18 C38.09 85.45, 27.81 75.42, 1.19 53.5 M55.14 95.1 C37.75 80.62, 18.5 63.61, 1.55 48.52 M55.14 95.1 C39.35 81.68, 24.57 68.86, 1.55 48.52 M59.27 93.39 C41.21 79.36, 26.49 64.6, 2.67 44.18 M59.27 93.39 C42.63 78.29, 25.61 64.87, 2.67 44.18 M63.4 91.68 C40.68 69.85, 15.82 51.91, 3.03 39.2 M63.4 91.68 C47.14 77.78, 31.84 64.65, 3.03 39.2 M67.54 89.98 C47.48 73.6, 26.41 54.93, 4.14 34.87 M67.54 89.98 C54.22 78.29, 40.04 66.62, 4.14 34.87 M71.67 88.27 C57.14 77.32, 42.46 64.7, 4.5 29.88 M71.67 88.27 C55.58 74.31, 41.41 60.59, 4.5 29.88 M75.8 86.56 C57.43 69.7, 39.14 52.48, 7.13 26.86 M75.8 86.56 C53.7 66.47, 31.69 47.22, 7.13 26.86 M79.18 84.2 C62.57 72.57, 49.41 59.17, 9 23.19 M79.18 84.2 C52.93 60.83, 27.11 39.15, 9 23.19 M81.81 81.18 C60.69 65.15, 42.67 47.7, 11.62 20.17 M81.81 81.18 C57.51 58.4, 32.27 38.15, 11.62 20.17 M84.43 78.16 C67.79 61.82, 49.8 47.68, 14.24 17.15 M84.43 78.16 C60.71 57.56, 37.26 36.3, 14.24 17.15 M87.06 75.14 C64.84 54.07, 41.3 34.1, 16.11 13.47 M87.06 75.14 C70.42 62.41, 55.88 49.48, 16.11 13.47 M89.68 72.12 C73.49 58.13, 57.95 45.1, 18.74 10.45 M89.68 72.12 C69.67 54.98, 51.03 38.43, 18.74 10.45 M92.3 69.1 C67.39 45.67, 44.25 26.62, 22.12 8.09 M92.3 69.1 C73.94 53.99, 56.63 39.31, 22.12 8.09 M94.17 65.43 C73.06 48.62, 51.13 28.65, 26.25 6.38 M94.17 65.43 C80.42 53.13, 65.65 40.55, 26.25 6.38 M94.53 60.44 C72.97 40.83, 48.09 21.4, 30.38 4.68 M94.53 60.44 C70.58 39.99, 46.72 20.23, 30.38 4.68 M94.89 55.46 C75.84 39.24, 59.85 24.64, 34.52 2.97 M94.89 55.46 C75.23 39.7, 56.19 22.34, 34.52 2.97 M96.01 51.12 C75.52 31.62, 53.42 12.4, 38.65 1.26 M96.01 51.12 C79.88 35.93, 64.11 21, 38.65 1.26 M96.37 46.14 C85.88 36.65, 71.4 24.77, 43.54 0.21 M96.37 46.14 C84.08 36.48, 72.82 27.05, 43.54 0.21 M95.22 39.84 C84.89 32.78, 78.08 23.54, 50.69 1.13 M95.22 39.84 C81.11 26.45, 66.37 13.95, 50.69 1.13 M92.56 32.23 C84.25 25.89, 75.43 15.99, 57.84 2.05 M92.56 32.23 C83.72 25.33, 75.03 17.53, 57.84 2.05 M89.15 23.96 C82.4 17.7, 71.79 10.73, 65 2.97 M89.15 23.96 C83.33 18.64, 79.02 15.94, 65 2.97" stroke="#a5d8ff" stroke-width="0.5" fill="none"></path><path d="M66.87 3.95 C74.34 6.19, 81.62 11.88, 86.49 18.28 C91.36 24.69, 94.91 34.23, 96.08 42.39 C97.25 50.55, 96.67 59.97, 93.5 67.27 C90.33 74.57, 83.42 81.5, 77.06 86.18 C70.69 90.86, 63.14 94.33, 55.32 95.36 C47.49 96.39, 37.5 95.31, 30.09 92.38 C22.68 89.45, 15.7 84.22, 10.85 77.79 C5.99 71.37, 2.04 61.75, 0.97 53.82 C-0.1 45.89, 1.4 37.59, 4.42 30.21 C7.44 22.82, 12.98 14.51, 19.09 9.52 C25.21 4.53, 32.68 0.84, 41.11 0.29 C49.54 -0.26, 64.33 5.05, 69.66 6.22 C75 7.38, 73.46 6.84, 73.11 7.29 M68.17 4.27 C75.91 6.64, 84.15 13.36, 88.87 19.83 C93.6 26.3, 95.74 35.12, 96.52 43.09 C97.3 51.06, 96.9 60.36, 93.56 67.67 C90.21 74.97, 83.41 82.22, 76.45 86.91 C69.5 91.59, 59.95 94.88, 51.84 95.77 C43.72 96.67, 34.65 95.71, 27.75 92.31 C20.84 88.91, 14.89 81.84, 10.39 75.37 C5.89 68.9, 1.87 61.25, 0.74 53.46 C-0.39 45.68, 0.5 35.9, 3.6 28.67 C6.69 21.45, 12.83 14.85, 19.31 10.09 C25.79 5.34, 34.45 0.95, 42.5 0.14 C50.54 -0.66, 63.15 4.37, 67.57 5.27 C72 6.16, 69.09 4.77, 69.06 5.5" stroke="#1971c2" stroke-width="1" fill="none"></path></g><g stroke-linecap="round"><g transform="translate(58.11092847467597 293.7553335401668) rotate(0 22.482765665157103 -20.02025715578307)" fill-rule="evenodd"><path d="M12.5 -35.51 C12.5 -35.51, 12.5 -35.51, 12.5 -35.51 M12.5 -35.51 C12.5 -35.51, 12.5 -35.51, 12.5 -35.51 M4.37 -20.05 C7.87 -23.7, 12.07 -30.13, 21.43 -39.68 M4.37 -20.05 C9.46 -26.12, 14.62 -31.45, 21.43 -39.68 M2.79 -12.15 C7.43 -20.24, 14.67 -26.98, 26.41 -39.32 M2.79 -12.15 C12.22 -23.05, 21.2 -33.5, 26.41 -39.32 M1.22 -4.24 C11.24 -14.9, 24.24 -27.84, 30.09 -37.45 M1.22 -4.24 C12.82 -16.09, 23.16 -29.66, 30.09 -37.45 M2.93 -0.1 C12.69 -13.53, 22.26 -25.79, 33.11 -34.82 M2.93 -0.1 C13.08 -12.59, 24.82 -25.13, 33.11 -34.82 M7.91 0.26 C15.29 -8.89, 20.07 -15.44, 36.13 -32.2 M7.91 0.26 C15.1 -7.89, 21.32 -14.43, 36.13 -32.2 M13.56 -0.14 C20.82 -6.36, 24.87 -12.76, 38.49 -28.82 M13.56 -0.14 C18.64 -5.98, 23.47 -11.24, 38.49 -28.82 M18.54 0.22 C22.44 -4.76, 31.02 -11.4, 40.85 -25.44 M18.54 0.22 C24.75 -8.06, 31.42 -14.3, 40.85 -25.44 M24.19 -0.17 C27.45 -4.76, 35.27 -13.54, 42.56 -21.31 M24.19 -0.17 C30.73 -7.36, 37.18 -16.34, 42.56 -21.31 M29.18 0.19 C34.92 -5.44, 40.44 -12.05, 44.92 -17.93 M29.18 0.19 C33.96 -6.2, 39.76 -11.75, 44.92 -17.93 M34.82 -0.21 C40.03 -6.62, 42.25 -10.92, 45.97 -13.04 M34.82 -0.21 C37.79 -4.56, 40.89 -8.46, 45.97 -13.04 M40.46 -0.6 C42.09 -2.67, 44.84 -4.88, 47.02 -8.15 M40.46 -0.6 C42.37 -3.35, 45.11 -5.53, 47.02 -8.15 M0 0 C0 0, 0 0, 0 0 M0 0 C0 0, 0 0, 0 0 M6.4 0.26 C4.9 -1.3, 3.89 -1.53, 1.11 -4.33 M6.4 0.26 C5.37 -1.06, 3.92 -1.82, 1.11 -4.33 M12.04 -0.13 C8.53 -4.19, 4.64 -6.08, 1.47 -9.32 M12.04 -0.13 C8.58 -3.32, 4.81 -5.65, 1.47 -9.32 M18.44 0.13 C16.07 -4.05, 9.73 -7.35, 2.59 -13.65 M18.44 0.13 C14.54 -3.28, 10.41 -7.44, 2.59 -13.65 M24.08 -0.27 C17.44 -6.63, 8.56 -10.59, 3.7 -17.98 M24.08 -0.27 C16.55 -6.48, 9.09 -14.78, 3.7 -17.98 M30.48 0 C25.63 -3.81, 17.65 -10.1, 4.06 -22.97 M30.48 0 C23.95 -5.38, 16.39 -12.58, 4.06 -22.97 M36.12 -0.4 C24.97 -9.98, 16.41 -19.87, 5.18 -27.3 M36.12 -0.4 C26.68 -8.93, 16.78 -17.27, 5.18 -27.3 M40.26 -2.11 C27.59 -10.87, 14.49 -22.88, 7.8 -30.32 M40.26 -2.11 C27.98 -11.94, 17.18 -22.46, 7.8 -30.32 M45.14 -3.16 C30.03 -16.24, 19.06 -26.4, 10.43 -33.34 M45.14 -3.16 C34.66 -11.99, 23.28 -21.99, 10.43 -33.34 M47.01 -6.83 C40.62 -14.38, 31.51 -20.85, 13.05 -36.35 M47.01 -6.83 C35.81 -16.67, 23.78 -28.78, 13.05 -36.35 M46.62 -12.47 C38.68 -17.38, 34.75 -22.4, 17.19 -38.06 M46.62 -12.47 C37.97 -19.41, 29.49 -27.59, 17.19 -38.06 M43.21 -20.74 C36.8 -25.62, 29.11 -30.66, 20.56 -40.42 M43.21 -20.74 C37.46 -24.92, 33.43 -29.01, 20.56 -40.42 M38.28 -30.32 C35.26 -33.47, 32.7 -35.98, 29.23 -38.19 M38.28 -30.32 C36.31 -32.18, 33.59 -33.4, 29.23 -38.19" stroke="#a5d8ff" stroke-width="0.5" fill="none"></path><path d="M0.93 -0.96 C1.85 -5.38, 1.05 -19.73, 4.56 -26.25 C8.07 -32.77, 16.48 -39.53, 21.98 -40.08 C27.48 -40.63, 33.6 -35.86, 37.54 -29.53 C41.49 -23.21, 51.76 -6.9, 45.63 -2.14 C39.49 2.63, 8.43 -1.39, 0.76 -0.93 M-0.03 1.15 C0.77 -3.67, -0.21 -21.57, 3.36 -28.22 C6.94 -34.88, 15.74 -38.74, 21.42 -38.78 C27.11 -38.82, 33.64 -34.71, 37.48 -28.48 C41.33 -22.26, 50.93 -6.37, 44.5 -1.42 C38.07 3.53, 6.32 1.03, -1.1 1.21" stroke="#1971c2" stroke-width="1" fill="none"></path></g></g><mask></mask><g stroke-linecap="round" transform="translate(69.48370315767704 232.83336935094354) rotate(0 11.511176020560441 10.07227901799044)"><path d="M4.95 1.65 C4.95 1.65, 4.95 1.65, 4.95 1.65 M4.95 1.65 C4.95 1.65, 4.95 1.65, 4.95 1.65 M1.41 11.83 C4.59 7.05, 8.18 4.06, 11.25 0.5 M1.41 11.83 C5.32 7.53, 9.17 2.85, 11.25 0.5 M3.12 15.96 C6.84 10.44, 11.74 5.1, 15.58 1.62 M3.12 15.96 C7.08 11.3, 11.8 5.58, 15.58 1.62 M6.14 18.58 C10.67 13.45, 15.14 7.54, 19.26 3.49 M6.14 18.58 C10.87 13.07, 15.94 7.16, 19.26 3.49 M10.47 19.7 C14.62 16.29, 18.07 11.39, 21.62 6.87 M10.47 19.7 C13.16 16.1, 16.71 12.9, 21.62 6.87 M17.42 17.79 C19.35 16.06, 20.44 14.31, 22.67 11.76 M17.42 17.79 C19.62 15.33, 21.46 13.09, 22.67 11.76 M7.12 19.24 C7.12 19.24, 7.12 19.24, 7.12 19.24 M7.12 19.24 C7.12 19.24, 7.12 19.24, 7.12 19.24 M13.52 19.5 C9.33 15.96, 6.14 13.53, 1.45 9.01 M13.52 19.5 C8.52 14.99, 3.72 10.97, 1.45 9.01 M17.65 17.8 C12.95 14.72, 8.1 10.22, 2.56 4.68 M17.65 17.8 C12.94 13.9, 8.8 9.8, 2.56 4.68 M21.03 15.43 C16.84 11.98, 11.54 6.6, 5.19 1.66 M21.03 15.43 C18.26 12.93, 15.08 10.25, 5.19 1.66 M22.15 11.1 C19.09 8.15, 16.58 6.71, 10.07 0.61 M22.15 11.1 C19.61 8.4, 16.58 6.34, 10.07 0.61 M20.24 4.15 C19.42 3.33, 18.56 2.74, 17.98 2.18 M20.24 4.15 C19.51 3.49, 18.73 2.92, 17.98 2.18" stroke="#a5d8ff" stroke-width="0.5" fill="none"></path><path d="M12.42 0.31 C14.81 0.44, 18.18 1.79, 19.87 3.23 C21.57 4.68, 22.36 6.95, 22.59 8.98 C22.82 11, 22.58 13.66, 21.25 15.41 C19.92 17.16, 16.97 18.86, 14.61 19.49 C12.25 20.12, 9.29 20.13, 7.08 19.2 C4.87 18.27, 2.42 15.83, 1.37 13.9 C0.32 11.97, 0.17 9.69, 0.78 7.63 C1.39 5.58, 3.07 2.84, 5.02 1.57 C6.98 0.3, 11.21 0.13, 12.53 0 C13.86 -0.13, 12.95 0.67, 12.96 0.78 M9.13 0.36 C11.52 -0.16, 15.27 0.44, 17.6 1.52 C19.94 2.59, 22.36 4.79, 23.14 6.81 C23.93 8.83, 23.22 11.65, 22.29 13.64 C21.36 15.63, 19.76 17.73, 17.57 18.74 C15.37 19.74, 11.75 20.11, 9.12 19.66 C6.49 19.21, 3.38 17.68, 1.79 16.03 C0.21 14.38, -0.68 11.96, -0.39 9.75 C-0.1 7.54, 1.79 4.36, 3.53 2.77 C5.28 1.19, 9.08 0.63, 10.09 0.23 C11.09 -0.17, 9.63 0.15, 9.56 0.38" stroke="#1971c2" stroke-width="1" fill="none"></path></g><g transform="translate(10 298.47982078347263) rotate(0 70.99487917823765 10.342072205972272)"><text x="70.99487917823765" y="0" font-family="Virgil, Segoe UI Emoji" font-size="16.547315529555636px" fill="#1971c2" text-anchor="middle" style="white-space: pre;" direction="ltr" dominant-baseline="text-before-edge">Personal Limpieza</text></g><g transform="translate(422.8378361227217 10) rotate(0 121.19166564941406 22.5)"><text x="0" y="0" font-family="Virgil, Segoe UI Emoji" font-size="36px" fill="#343a40" text-anchor="start" style="white-space: pre;" direction="ltr" dominant-baseline="text-before-edge">Casos de uso</text></g><g stroke-linecap="round" transform="translate(394.02950177213563 97.94844647373384) rotate(0 150.00000000000006 42.5)"><path d="M2.95 34.37 C2.95 34.37, 2.95 34.37, 2.95 34.37 M2.95 34.37 C2.95 34.37, 2.95 34.37, 2.95 34.37 M2.43 47.16 C8.43 39.98, 14 33.69, 27.36 18.48 M2.43 47.16 C10.38 39.51, 17.18 29.72, 27.36 18.48 M7.15 53.92 C18.58 43.69, 28.11 29.02, 41.27 14.67 M7.15 53.92 C17.6 42.88, 28.46 29.33, 41.27 14.67 M13.19 59.17 C22.36 48.38, 33.45 38.21, 55.84 10.11 M13.19 59.17 C25.03 45.98, 36.66 31.75, 55.84 10.11 M19.89 63.66 C30.2 49.87, 42.64 38.09, 69.09 7.06 M19.89 63.66 C36.44 42.03, 54.68 22.29, 69.09 7.06 M27.89 66.65 C41.71 49.5, 52.59 35, 81.03 5.51 M27.89 66.65 C42.48 49, 56.31 33.6, 81.03 5.51 M36.55 68.88 C53.67 50.46, 69.2 31.1, 93.63 3.22 M36.55 68.88 C57.31 46.33, 76.49 21.76, 93.63 3.22 M44.56 71.86 C60.34 52.89, 75.48 36.83, 105.57 1.67 M44.56 71.86 C64.75 48.94, 84.5 25.93, 105.57 1.67 M53.22 74.09 C65.88 58.96, 79.7 42.07, 116.2 1.64 M53.22 74.09 C71.13 54.74, 89.09 33.44, 116.2 1.64 M61.88 76.32 C81.39 57.54, 95.89 37.79, 127.49 0.85 M61.88 76.32 C82.24 51.86, 102.97 29.92, 127.49 0.85 M71.2 77.79 C86.55 61.16, 100.99 45.36, 138.12 0.81 M71.2 77.79 C92.74 53.45, 113.64 26.88, 138.12 0.81 M80.52 79.27 C95.84 57.85, 114.36 40.21, 148.75 0.78 M80.52 79.27 C102.92 53.83, 124.94 28.6, 148.75 0.78 M89.84 80.74 C105.34 62.53, 119.31 47.96, 159.38 0.75 M89.84 80.74 C117.61 49.2, 145.24 17.23, 159.38 0.75 M99.16 82.22 C113.55 66.49, 129.23 45.71, 170.01 0.71 M99.16 82.22 C123.26 54.86, 145.58 26.9, 170.01 0.71 M108.47 83.69 C124.67 64.11, 138.46 46.7, 179.98 1.43 M108.47 83.69 C131.14 57.15, 154.26 31.57, 179.98 1.43 M118.45 84.41 C144.16 52.81, 174.77 22.29, 189.96 2.15 M118.45 84.41 C142.63 59.59, 165.22 32, 189.96 2.15 M129.08 84.38 C142.58 70.21, 156.85 51.64, 199.93 2.87 M129.08 84.38 C150.48 59.82, 170.98 34.66, 199.93 2.87 M139.05 85.1 C166.59 53.92, 190.89 27.6, 209.91 3.59 M139.05 85.1 C160.84 60.77, 183.44 33.74, 209.91 3.59 M149.03 85.82 C165.37 68.87, 179.88 52.6, 219.22 5.07 M149.03 85.82 C167.28 65.29, 184.67 44.87, 219.22 5.07 M159.66 85.79 C173.32 67.61, 186.52 52.1, 228.54 6.54 M159.66 85.79 C185.78 54.25, 211.44 25.13, 228.54 6.54 M170.94 85 C185.91 67.93, 198.03 53.82, 237.86 8.02 M170.94 85 C189.52 64.43, 206.18 44.82, 237.86 8.02 M182.88 83.45 C204.47 58.34, 223.42 35.62, 246.52 10.25 M182.88 83.45 C197.91 64.96, 214.92 46.18, 246.52 10.25 M194.83 81.91 C212 65.75, 226.44 47.1, 255.84 11.72 M194.83 81.91 C213.83 59.71, 234.03 38.36, 255.84 11.72 M206.11 81.12 C219.43 67.25, 231.17 51.95, 263.85 14.71 M206.11 81.12 C220.38 64.27, 236.07 46.72, 263.85 14.71 M217.4 80.33 C234.37 60.86, 254.78 37.86, 271.2 18.44 M217.4 80.33 C238.2 57.28, 257.45 34.16, 271.2 18.44 M230 78.03 C244.2 62.53, 259.2 47.23, 278.54 22.18 M230 78.03 C239.58 65.06, 250.88 53.37, 278.54 22.18 M242.59 75.73 C255.93 57.78, 274.25 40.76, 286.55 25.17 M242.59 75.73 C255.56 60.77, 269.53 43.81, 286.55 25.17 M255.19 73.43 C263.03 64.87, 271.62 54.5, 292.59 30.42 M255.19 73.43 C268.35 59.49, 281.52 42.56, 292.59 30.42 M271.73 66.61 C278.25 59.93, 283.85 51.28, 297.31 37.17 M271.73 66.61 C281.51 54.48, 291.31 44.11, 297.31 37.17 M289.57 58.27 C290.48 57.71, 291.05 56.58, 291.54 56.01 M289.57 58.27 C290.19 57.59, 290.86 56.93, 291.54 56.01" stroke="#a5d8ff" stroke-width="1" fill="none"></path><path d="M217.23 4.18 C233.71 5.58, 248.97 9.23, 261.16 13.11 C273.35 16.99, 283.74 22.38, 290.37 27.45 C297 32.52, 300.92 38.57, 300.94 43.54 C300.97 48.51, 297.3 52.59, 290.52 57.26 C283.75 61.93, 272.61 67.79, 260.3 71.55 C247.98 75.32, 232.96 77.52, 216.64 79.83 C200.32 82.15, 180.52 84.92, 162.38 85.45 C144.24 85.98, 124.95 84.65, 107.81 83.03 C90.67 81.42, 73.95 78.85, 59.52 75.77 C45.09 72.68, 30.7 68.66, 21.23 64.53 C11.76 60.4, 5.76 55.99, 2.69 50.99 C-0.38 45.98, -0.6 39.82, 2.82 34.52 C6.23 29.23, 13.68 23.51, 23.16 19.2 C32.64 14.89, 45.38 11.69, 59.7 8.65 C74.02 5.62, 91.52 2.46, 109.07 0.99 C126.62 -0.49, 144.61 -1.3, 165 -0.21 C185.39 0.87, 218.35 5.6, 231.42 7.51 C244.5 9.42, 244.79 10.66, 243.46 11.23 M136.73 -1.19 C153.36 -2.3, 173.83 -0.22, 191.57 1.32 C209.31 2.86, 228.59 5.07, 243.17 8.05 C257.75 11.03, 269.82 14.6, 279.07 19.21 C288.31 23.82, 295.56 30.57, 298.64 35.72 C301.72 40.88, 301.34 45.32, 297.55 50.13 C293.77 54.95, 285.5 60.32, 275.9 64.63 C266.31 68.95, 254.52 72.68, 239.97 76.03 C225.42 79.38, 206.04 83.13, 188.62 84.75 C171.2 86.38, 153.11 86.49, 135.42 85.77 C117.74 85.04, 99.02 83.02, 82.5 80.42 C65.99 77.82, 48.66 74.2, 36.33 70.18 C24 66.16, 14.77 60.93, 8.53 56.28 C2.29 51.63, -1.62 47.07, -1.11 42.26 C-0.6 37.45, 4.43 32.42, 11.59 27.44 C18.75 22.45, 29.8 16.22, 41.85 12.34 C53.9 8.46, 67.65 6.01, 83.87 4.16 C100.09 2.3, 130.22 1.79, 139.19 1.21 C148.15 0.64, 137.44 0.28, 137.67 0.72" stroke="#1971c2" stroke-width="2" fill="none"></path></g><g transform="translate(448.4301517694465 115.39640827330555) rotate(0 95.53333282470703 25)"><text x="95.53333282470703" y="0" font-family="Virgil, Segoe UI Emoji" font-size="20px" fill="#1971c2" text-anchor="middle" style="white-space: pre;" direction="ltr" dominant-baseline="text-before-edge">Actualizar estado </text><text x="95.53333282470703" y="25" font-family="Virgil, Segoe UI Emoji" font-size="20px" fill="#1971c2" text-anchor="middle" style="white-space: pre;" direction="ltr" dominant-baseline="text-before-edge">de habitación</text></g><g stroke-linecap="round" transform="translate(393.02950177213563 412.94844647373384) rotate(0 151.00000000000006 42.5)"><path d="M4.55 33.1 C4.55 33.1, 4.55 33.1, 4.55 33.1 M4.55 33.1 C4.55 33.1, 4.55 33.1, 4.55 33.1 M2.06 48.16 C10.82 34.75, 21.12 23.72, 28.96 17.22 M2.06 48.16 C10.58 37.67, 20.31 28.02, 28.96 17.22 M8.75 52.66 C18.06 40.69, 29.99 26.92, 42.87 13.41 M8.75 52.66 C17.79 43.73, 26.04 32.18, 42.87 13.41 M14.79 57.91 C23.74 48.59, 35.99 36.84, 56.78 9.6 M14.79 57.91 C24.2 46.44, 34.93 36.22, 56.78 9.6 M20.83 63.15 C32.09 51.08, 41.39 38.11, 70.03 6.55 M20.83 63.15 C37.48 43.94, 53.65 26.71, 70.03 6.55 M28.83 66.14 C48.69 42.2, 69.42 19.18, 81.97 5.01 M28.83 66.14 C44.11 48.1, 59.35 31.97, 81.97 5.01 M36.84 69.12 C55.52 44.61, 77.04 21.15, 93.91 3.46 M36.84 69.12 C56.34 47.58, 75.38 25.56, 93.91 3.46 M44.84 72.11 C67.47 44.01, 92.41 19.26, 105.2 2.67 M44.84 72.11 C67.8 45.59, 90.44 19.85, 105.2 2.67 M52.85 75.09 C64.07 60.72, 80.53 45.85, 117.14 1.13 M52.85 75.09 C72.74 52.34, 92.1 28.41, 117.14 1.13 M62.17 76.57 C85.56 49.08, 111.87 20.6, 127.77 1.1 M62.17 76.57 C77.79 58.44, 92.56 40.98, 127.77 1.1 M71.49 78.04 C92.4 51.38, 116.81 27.64, 138.4 1.06 M71.49 78.04 C85.34 62.78, 98.15 47.73, 138.4 1.06 M80.8 79.52 C100.87 52.83, 123.41 27.17, 149.03 1.03 M80.8 79.52 C106.91 51.52, 132.06 22.6, 149.03 1.03 M90.78 80.24 C111.26 53.88, 135.94 30.8, 159.66 0.99 M90.78 80.24 C108.37 61.97, 124.12 42.26, 159.66 0.99 M100.1 81.71 C120.35 59.47, 139.01 36.7, 170.29 0.96 M100.1 81.71 C122.04 54.85, 143.31 30.55, 170.29 0.96 M110.07 82.43 C134.08 50.78, 161.01 20.47, 180.27 1.68 M110.07 82.43 C138.62 50.85, 166.16 18.67, 180.27 1.68 M120.04 83.15 C143.22 58.32, 161.76 35.93, 190.24 2.4 M120.04 83.15 C135.35 65.71, 149.97 48.08, 190.24 2.4 M130.02 83.87 C154.61 51.56, 184.6 23.28, 199.56 3.87 M130.02 83.87 C152.65 56.89, 175.4 30.2, 199.56 3.87 M140.65 83.84 C159.78 61.41, 182.12 36.64, 209.53 4.59 M140.65 83.84 C155.72 68.79, 169.64 52.28, 209.53 4.59 M150.62 84.56 C166.52 64.25, 185.32 45.68, 219.51 5.31 M150.62 84.56 C166.06 66.3, 181.97 49.27, 219.51 5.31 M161.25 84.52 C178.98 65.77, 193.5 45.8, 229.48 6.03 M161.25 84.52 C177.96 65.64, 195.34 45.64, 229.48 6.03 M172.54 83.73 C191.95 60.27, 213.13 38.31, 238.14 8.26 M172.54 83.73 C196.54 56.33, 220.65 28.03, 238.14 8.26 M183.82 82.95 C200.6 59.45, 221.43 38.97, 246.81 10.49 M183.82 82.95 C202.02 62.37, 221.07 39.57, 246.81 10.49 M195.11 82.16 C218.33 54.48, 239.42 28.74, 256.12 11.97 M195.11 82.16 C216.85 58.26, 238.42 34.34, 256.12 11.97 M206.4 81.37 C226.3 58.61, 248.46 34.95, 264.79 14.2 M206.4 81.37 C225.33 57.81, 246.64 33.35, 264.79 14.2 M217.68 80.58 C231.54 66.4, 245.07 49.47, 272.14 17.94 M217.68 80.58 C232.43 63.5, 247.03 44.89, 272.14 17.94 M230.28 78.28 C249.11 56.41, 268.76 32.33, 279.49 21.68 M230.28 78.28 C249.48 57.14, 266.99 35.95, 279.49 21.68 M242.88 75.98 C259.36 57.02, 277.66 36.39, 286.84 25.41 M242.88 75.98 C260.29 58.15, 275.52 38.89, 286.84 25.41 M256.13 72.93 C265.13 64.26, 273.24 55.53, 293.53 29.91 M256.13 72.93 C270.09 57.04, 283.44 40.97, 293.53 29.91 M271.36 67.61 C279.06 57.88, 288.68 45.32, 297.6 37.42 M271.36 67.61 C280.44 56.95, 288.96 47.11, 297.6 37.42 M287.89 60.78 C292.03 53.76, 295.54 51.98, 302.32 44.18 M287.89 60.78 C292.66 55.36, 297.58 49.19, 302.32 44.18" stroke="#a5d8ff" stroke-width="1" fill="none"></path><path d="M171.89 0.68 C189.05 0.59, 207.81 2.51, 223.72 4.84 C239.63 7.18, 255.71 10.63, 267.35 14.72 C279 18.81, 287.91 24.5, 293.59 29.37 C299.27 34.25, 302.06 38.89, 301.43 43.95 C300.79 49.01, 296.88 55.02, 289.76 59.73 C282.63 64.44, 271.56 68.63, 258.68 72.21 C245.8 75.79, 229.23 79.1, 212.48 81.22 C195.74 83.34, 176.61 84.83, 158.21 84.94 C139.81 85.06, 119.51 83.6, 102.08 81.92 C84.64 80.24, 67.31 78.11, 53.61 74.89 C39.91 71.67, 28.52 67.17, 19.88 62.6 C11.24 58.02, 4.33 52.36, 1.77 47.44 C-0.78 42.52, 0.4 38, 4.56 33.09 C8.72 28.18, 16.62 22.35, 26.74 18 C36.86 13.64, 50.2 9.85, 65.28 6.96 C80.35 4.07, 98.35 1.55, 117.2 0.65 C136.05 -0.26, 166.96 1.21, 178.37 1.54 C189.78 1.87, 185.93 2.05, 185.65 2.62 M78.99 3.86 C93.28 1.26, 114.94 1.23, 133.31 1.03 C151.67 0.82, 171.79 1.69, 189.17 2.65 C206.54 3.61, 222.91 3.89, 237.57 6.81 C252.23 9.73, 266.76 15.83, 277.12 20.16 C287.47 24.5, 295.91 27.78, 299.7 32.81 C303.49 37.84, 302.99 45.33, 299.87 50.33 C296.75 55.33, 289.97 58.38, 280.99 62.8 C272 67.21, 260.02 73.68, 245.95 76.84 C231.89 79.99, 213.96 80.47, 196.59 81.71 C179.21 82.95, 159.98 84.41, 141.69 84.28 C123.4 84.15, 103.43 83.08, 86.85 80.94 C70.27 78.8, 54.66 75.32, 42.2 71.42 C29.74 67.52, 19.13 61.97, 12.11 57.52 C5.09 53.06, 0.78 49.5, 0.09 44.68 C-0.59 39.86, 2.1 33.6, 8 28.59 C13.89 23.58, 23.49 18.66, 35.46 14.63 C47.44 10.6, 72.11 5.89, 79.85 4.4 C87.59 2.91, 80.93 5.04, 81.9 5.69" stroke="#1971c2" stroke-width="2" fill="none"></path></g><g transform="translate(447.0313793388459 430.39640827330555) rotate(0 97.2249984741211 25)"><text x="97.2249984741211" y="0" font-family="Virgil, Segoe UI Emoji" font-size="20px" fill="#1971c2" text-anchor="middle" style="white-space: pre;" direction="ltr" dominant-baseline="text-before-edge">Asignación de </text><text x="97.2249984741211" y="25" font-family="Virgil, Segoe UI Emoji" font-size="20px" fill="#1971c2" text-anchor="middle" style="white-space: pre;" direction="ltr" dominant-baseline="text-before-edge">Tareas de Limpieza</text></g><g stroke-linecap="round" transform="translate(393.52950177213575 307.94844647373384) rotate(0 150.5 42.5)"><path d="M-0.01 38.41 C-0.01 38.41, -0.01 38.41, -0.01 38.41 M-0.01 38.41 C-0.01 38.41, -0.01 38.41, -0.01 38.41 M2.75 47.44 C8.05 43.03, 13.2 34.57, 25.05 21.78 M2.75 47.44 C11.26 37.26, 18.02 29.06, 25.05 21.78 M6.16 55.7 C16.36 44.93, 26.78 35.52, 40.93 15.7 M6.16 55.7 C17.76 42.46, 29.95 29.37, 40.93 15.7 M13.51 59.44 C28.03 40.58, 44.56 21.45, 55.5 11.14 M13.51 59.44 C29.65 40.88, 46.73 21.93, 55.5 11.14 M20.86 63.18 C29.69 52.28, 41.36 38.93, 68.09 8.84 M20.86 63.18 C37.9 41.66, 55.67 21.62, 68.09 8.84 M28.21 66.92 C41.94 51.55, 59.24 30.54, 81.35 5.79 M28.21 66.92 C49.11 42.72, 69.76 17.47, 81.35 5.79 M36.21 69.91 C52 50.03, 70.09 31.74, 93.95 3.49 M36.21 69.91 C52.22 51.41, 66.98 32.89, 93.95 3.49 M44.88 72.14 C63.01 50.55, 84.22 25.63, 105.89 1.95 M44.88 72.14 C65.24 50.23, 83.93 27.4, 105.89 1.95 M53.54 74.36 C78.25 48.05, 100.74 21.62, 116.52 1.91 M53.54 74.36 C67.79 55.71, 83.59 38.38, 116.52 1.91 M62.2 76.59 C87.53 48.84, 113.41 18.69, 127.81 1.12 M62.2 76.59 C80.43 55.71, 99.14 32.89, 127.81 1.12 M70.86 78.82 C92.91 54.53, 114.9 30.42, 139.09 0.33 M70.86 78.82 C94.08 52.11, 115.62 25.25, 139.09 0.33 M80.18 80.3 C95.99 59.31, 114.08 43.38, 149.72 0.3 M80.18 80.3 C101.02 54.27, 123.04 28.33, 149.72 0.3 M90.15 81.02 C114.46 50.67, 142.94 22.51, 160.35 0.27 M90.15 81.02 C106.8 62.79, 124.31 42.73, 160.35 0.27 M99.47 82.49 C129.02 52.28, 155.02 18.4, 170.33 0.99 M99.47 82.49 C113.97 64.61, 127.01 47.56, 170.33 0.99 M108.79 83.97 C124.09 64.37, 142.31 46.34, 180.3 1.71 M108.79 83.97 C127.56 60.86, 148.78 38.16, 180.3 1.71 M118.76 84.69 C134.6 67.83, 152.12 47.56, 190.27 2.43 M118.76 84.69 C138.78 60.88, 156.74 38.29, 190.27 2.43 M128.74 85.41 C155.09 56.39, 180.35 24.93, 200.25 3.15 M128.74 85.41 C143.64 67.86, 159.29 49.83, 200.25 3.15 M139.37 85.38 C159.74 60.45, 183.34 38.47, 209.57 4.62 M139.37 85.38 C165.38 55.72, 192 24.05, 209.57 4.62 M150 85.34 C168.76 63.55, 187.8 40.65, 218.88 6.1 M150 85.34 C168.69 63.47, 188.37 41.56, 218.88 6.1 M160.63 85.31 C172.63 70.22, 187.46 54.07, 228.2 7.57 M160.63 85.31 C184.49 58.5, 206.68 32.36, 228.2 7.57 M171.26 85.27 C189.81 64.14, 207.51 43.8, 236.86 9.8 M171.26 85.27 C192.36 62.92, 210.69 38.4, 236.86 9.8 M182.54 84.48 C201.04 62.11, 217.92 43.71, 246.18 11.28 M182.54 84.48 C201.4 63.36, 220.54 40.53, 246.18 11.28 M193.83 83.69 C211.68 63.26, 228.44 46.39, 254.84 13.51 M193.83 83.69 C217.22 56.32, 240.78 28.88, 254.84 13.51 M205.77 82.15 C229.13 58.28, 247.96 31.77, 263.51 15.73 M205.77 82.15 C224.86 60.89, 244.23 39.75, 263.51 15.73 M217.06 81.36 C239.65 57.96, 258.36 35.5, 271.51 18.72 M217.06 81.36 C231.02 64.46, 245.64 48.21, 271.51 18.72 M229 79.82 C240.31 66.67, 254.79 51.84, 279.52 21.7 M229 79.82 C242.52 63.06, 255.15 48.98, 279.52 21.7 M243.57 75.25 C255.98 59.53, 273.32 44.53, 286.87 25.44 M243.57 75.25 C256.39 61.05, 269.46 46.61, 286.87 25.44 M258.13 70.69 C270.22 56.4, 281.22 44.02, 292.25 31.45 M258.13 70.69 C267.52 60.68, 276.4 49.29, 292.25 31.45 M272.7 66.13 C281.54 56.76, 287.2 49.41, 298.29 36.69 M272.7 66.13 C281.29 56.25, 287.96 47.45, 298.29 36.69 M292.52 55.53 C293.15 54.31, 293.85 53.91, 295.8 51.75 M292.52 55.53 C293.58 54.59, 294.17 53.7, 295.8 51.75" stroke="#a5d8ff" stroke-width="1" fill="none"></path><path d="M95.71 2.27 C111.08 -0.2, 132.96 -0.62, 151.1 -0.41 C169.25 -0.21, 187.73 1.43, 204.56 3.5 C221.4 5.58, 238.72 8.6, 252.12 12.03 C265.52 15.45, 276.96 19.61, 284.98 24.08 C293 28.55, 298.52 34, 300.22 38.85 C301.92 43.71, 300.29 48.5, 295.19 53.23 C290.08 57.96, 280.58 62.85, 269.59 67.22 C258.6 71.59, 244.61 76.55, 229.23 79.45 C213.86 82.35, 195.27 83.71, 177.35 84.61 C159.43 85.51, 139.35 85.77, 121.7 84.82 C104.04 83.88, 86.72 81.79, 71.4 78.93 C56.08 76.08, 40.81 71.7, 29.78 67.69 C18.74 63.68, 10.14 59.78, 5.2 54.87 C0.27 49.95, -1.74 43.28, 0.18 38.2 C2.09 33.11, 8.4 28.74, 16.69 24.35 C24.98 19.96, 34.48 15.78, 49.94 11.83 C65.39 7.88, 97.26 2.45, 109.42 0.64 C121.57 -1.16, 122.31 0.26, 122.87 0.98 M168.58 -0.85 C185.65 -1.11, 203.05 2.04, 219.06 4.78 C235.07 7.51, 252.64 11.74, 264.65 15.55 C276.66 19.36, 284.86 23.1, 291.11 27.64 C297.36 32.18, 302.54 37.52, 302.14 42.79 C301.73 48.07, 295.56 54.43, 288.69 59.31 C281.81 64.18, 273.4 68.36, 260.89 72.04 C248.39 75.73, 230.33 79.36, 213.66 81.41 C196.99 83.46, 178.76 84.05, 160.89 84.33 C143.02 84.62, 123.77 84.46, 106.44 83.12 C89.12 81.78, 71.43 79.44, 56.97 76.29 C42.5 73.14, 28.62 68.81, 19.64 64.22 C10.66 59.63, 5.78 54, 3.08 48.74 C0.39 43.49, 0 37.6, 3.48 32.68 C6.96 27.77, 14.3 23.28, 23.98 19.26 C33.65 15.24, 46.86 11.77, 61.53 8.55 C76.21 5.34, 94.49 1.27, 112.05 -0.04 C129.6 -1.36, 157.49 0.56, 166.84 0.67 C176.18 0.77, 168.44 -0.07, 168.12 0.6" stroke="#1971c2" stroke-width="2" fill="none"></path></g><g transform="translate(446.0016014306111 325.39640827330555) rotate(0 98.10832977294922 25)"><text x="98.10832977294922" y="0" font-family="Virgil, Segoe UI Emoji" font-size="20px" fill="#1971c2" text-anchor="middle" style="white-space: pre;" direction="ltr" dominant-baseline="text-before-edge">Registro de Tareas</text><text x="98.10832977294922" y="25" font-family="Virgil, Segoe UI Emoji" font-size="20px" fill="#1971c2" text-anchor="middle" style="white-space: pre;" direction="ltr" dominant-baseline="text-before-edge">Realizadas</text></g><g stroke-linecap="round" transform="translate(394.02950177213575 202.94844647373384) rotate(0 150 42.5)"><path d="M6.92 31.19 C6.92 31.19, 6.92 31.19, 6.92 31.19 M6.92 31.19 C6.92 31.19, 6.92 31.19, 6.92 31.19 M2.47 48.52 C10.24 40.71, 17.68 30.44, 28.71 18.33 M2.47 48.52 C7.99 41.2, 14.59 34.88, 28.71 18.33 M8.5 53.77 C18.71 37.84, 31.66 25.43, 42.62 14.52 M8.5 53.77 C17.21 42.97, 24.53 33.56, 42.62 14.52 M14.54 59.02 C25.93 44.17, 36.36 33.17, 56.53 10.71 M14.54 59.02 C27.02 45.36, 38.75 31.1, 56.53 10.71 M21.23 63.51 C39.72 44.74, 55.6 21.45, 71.1 6.15 M21.23 63.51 C34.34 48.18, 47.02 34.27, 71.1 6.15 M29.24 66.49 C46.76 46.86, 64.06 26.38, 83.04 4.61 M29.24 66.49 C40.62 53.32, 52.42 39.24, 83.04 4.61 M37.25 69.48 C54.12 52.75, 70.76 32.32, 94.98 3.06 M37.25 69.48 C53.73 52.4, 67.6 34.91, 94.98 3.06 M45.25 72.46 C64.13 48.7, 83.87 29.8, 106.27 2.27 M45.25 72.46 C58.62 57.18, 71.72 42.51, 106.27 2.27 M53.91 74.69 C74.74 51.94, 93.67 25.12, 118.21 0.73 M53.91 74.69 C69.19 55.11, 85.95 37.66, 118.21 0.73 M63.23 76.17 C84.32 52.03, 105.01 28.42, 128.84 0.7 M63.23 76.17 C77.29 59.87, 90.49 45.43, 128.84 0.7 M72.55 77.64 C99.62 47.54, 126.43 16.35, 139.47 0.66 M72.55 77.64 C86.79 62.15, 101.44 43.94, 139.47 0.66 M81.21 79.87 C105.43 53.41, 125.63 25.62, 150.1 0.63 M81.21 79.87 C96.87 61.55, 110.96 44.56, 150.1 0.63 M90.53 81.35 C112.58 55.18, 135.03 31.38, 160.07 1.35 M90.53 81.35 C116.34 50.43, 144.54 20.35, 160.07 1.35 M100.5 82.07 C125.08 58.47, 147.01 30.04, 170.7 1.31 M100.5 82.07 C114.67 67.09, 128.88 49.66, 170.7 1.31 M110.48 82.79 C132.09 58.24, 151.58 32.68, 181.33 1.28 M110.48 82.79 C137.4 52.47, 162.56 24.35, 181.33 1.28 M120.45 83.51 C142.15 60.28, 165.07 31.82, 190.65 2.75 M120.45 83.51 C136.46 66.23, 151.16 49.53, 190.65 2.75 M130.43 84.23 C148.78 63.66, 165.26 43.87, 200.62 3.47 M130.43 84.23 C144.27 66.72, 158.19 50.55, 200.62 3.47 M140.4 84.95 C167.09 52.32, 192.44 23.97, 210.6 4.19 M140.4 84.95 C155.38 67.83, 168.95 52.13, 210.6 4.19 M151.03 84.91 C171.07 63.26, 187.36 43.64, 219.92 5.67 M151.03 84.91 C174.05 58.41, 195.94 32.75, 219.92 5.67 M162.32 84.12 C177.6 64.62, 196.63 44.31, 229.89 6.39 M162.32 84.12 C180.21 65.39, 196.76 45.34, 229.89 6.39 M173.6 83.33 C193.91 59.76, 216.23 37.84, 238.55 8.62 M173.6 83.33 C187.97 67.75, 201.4 51.41, 238.55 8.62 M184.89 82.55 C199.71 64.97, 217.05 46.05, 247.21 10.85 M184.89 82.55 C205.5 59.33, 227.52 34.22, 247.21 10.85 M196.17 81.76 C220.11 56.6, 240.79 30.86, 255.88 13.08 M196.17 81.76 C213.29 62.01, 230.98 42.65, 255.88 13.08 M206.8 81.72 C217.45 65.78, 231.45 52.33, 264.54 15.31 M206.8 81.72 C225.51 58.49, 246.84 35.98, 264.54 15.31 M219.4 79.42 C234.37 62.1, 251.24 40.91, 272.54 18.29 M219.4 79.42 C231.39 65.9, 243.89 51.28, 272.54 18.29 M232 77.12 C249.03 59.93, 265.98 36.87, 279.89 22.03 M232 77.12 C244.67 62.78, 256.96 47.54, 279.89 22.03 M243.94 75.58 C260.3 55.11, 276.62 38.14, 286.59 26.52 M243.94 75.58 C259.06 59.45, 273.26 41.57, 286.59 26.52 M259.17 70.26 C270.26 58.03, 281.89 45.96, 293.94 30.26 M259.17 70.26 C266.43 61.5, 276.12 51.02, 293.94 30.26 M274.39 64.95 C282.17 56.3, 292 44.87, 297.35 38.53 M274.39 64.95 C281.97 58.11, 287.45 49.51, 297.35 38.53" stroke="#a5d8ff" stroke-width="1" fill="none"></path><path d="M179.39 0.86 C196.89 1.17, 215.65 3.52, 230.91 6.21 C246.16 8.91, 260.26 12.85, 270.91 17.01 C281.56 21.17, 290.26 26.38, 294.82 31.2 C299.38 36.01, 300.29 40.85, 298.28 45.89 C296.27 50.93, 290.67 56.84, 282.77 61.45 C274.88 66.06, 264.15 70.24, 250.92 73.55 C237.68 76.87, 220.29 79.36, 203.35 81.32 C186.42 83.28, 167.38 85.28, 149.32 85.31 C131.26 85.34, 111.93 83.53, 94.99 81.51 C78.05 79.49, 60.84 76.67, 47.67 73.19 C34.5 69.71, 23.88 65.03, 15.97 60.65 C8.06 56.26, 1.72 51.79, 0.21 46.89 C-1.3 41.98, 1.65 36.23, 6.92 31.2 C12.19 26.17, 21.13 20.93, 31.82 16.7 C42.52 12.47, 55.9 8.62, 71.11 5.83 C86.32 3.04, 104.4 0.72, 123.07 -0.03 C141.74 -0.78, 172.19 0.84, 183.11 1.32 C194.04 1.8, 188.9 2.29, 188.61 2.82 M98.01 2.01 C113.2 -0.31, 133.13 1.18, 150.93 1.17 C168.72 1.15, 187.83 0.03, 204.78 1.91 C221.73 3.79, 239.24 9.02, 252.63 12.45 C266.02 15.89, 277.23 18.22, 285.12 22.52 C293.01 26.83, 298.6 32.98, 299.98 38.29 C301.36 43.59, 298.56 49.42, 293.39 54.35 C288.22 59.27, 279.8 63.98, 268.95 67.82 C258.11 71.67, 243.74 74.48, 228.32 77.4 C212.9 80.32, 194.4 84.17, 176.43 85.36 C158.46 86.56, 138.44 85.74, 120.5 84.57 C102.56 83.4, 83.99 81.24, 68.81 78.35 C53.63 75.47, 39.89 71.36, 29.4 67.26 C18.91 63.16, 10.87 58.67, 5.86 53.76 C0.84 48.86, -2.5 42.71, -0.7 37.83 C1.1 32.94, 8.33 29.07, 16.66 24.46 C25 19.85, 35.92 13.82, 49.32 10.16 C62.72 6.5, 89.07 3.5, 97.08 2.5 C105.08 1.49, 96.25 3.46, 97.33 4.14" stroke="#1971c2" stroke-width="2" fill="none"></path></g><g transform="translate(450.30515176944664 220.39640827330555) rotate(0 93.65833282470703 25)"><text x="93.65833282470703" y="0" font-family="Virgil, Segoe UI Emoji" font-size="20px" fill="#1971c2" text-anchor="middle" style="white-space: pre;" direction="ltr" dominant-baseline="text-before-edge">Visualizar rack de </text><text x="93.65833282470703" y="25" font-family="Virgil, Segoe UI Emoji" font-size="20px" fill="#1971c2" text-anchor="middle" style="white-space: pre;" direction="ltr" dominant-baseline="text-before-edge">habitaciones</text></g><g stroke-linecap="round"><g transform="translate(120.7342718071776 246.94844647373384) rotate(0 138.75012017752442 -52.06825829478828)"><path d="M-0.79 -1.03 C45.42 -18.43, 231.66 -88.2, 278.02 -105.33 M1 1.05 C47.03 -16.18, 231.42 -87.19, 277.34 -104.42" stroke="#1e1e1e" stroke-width="1" fill="none"></path></g></g><mask></mask><g stroke-linecap="round"><g transform="translate(123.9161336899138 258.90310118057425) rotate(0 134.9090690586319 -7.977327353420208)"><path d="M1.12 1.01 C46.31 -1.42, 225.86 -12.44, 270.48 -15.19 M0.25 0.49 C45.39 -2.22, 224.72 -13.89, 269.87 -16.92" stroke="#1e1e1e" stroke-width="1" fill="none"></path></g></g><mask></mask><g stroke-linecap="round"><g transform="translate(124.7342718071776 269.94844647373384) rotate(0 135.95465470684042 38.59093094136807)"><path d="M0.47 0.9 C45.7 14.1, 226.6 65.3, 271.99 77.98 M-0.75 0.33 C44.29 13.29, 225.55 63.3, 271.09 76.28" stroke="#1e1e1e" stroke-width="1" fill="none"></path></g></g><mask></mask><g stroke-linecap="round"><g transform="translate(117.7342718071776 278.94844647373384) rotate(0 139.1591892361564 85.45465470684039)"><path d="M-1.08 0.28 C45.08 28.68, 231.39 142.4, 278.12 170.97 M0.56 -0.63 C46.44 27.95, 230.66 144.14, 277.06 172.54" stroke="#1e1e1e" stroke-width="1" fill="none"></path></g></g><mask></mask><g stroke-opacity="0" fill-opacity="0" stroke-linecap="round" transform="translate(926.2921562669051 264.89267249880874) rotate(0 30.4734748480048 30.473474848004827)"><path d="M31.69 -0.61 C37.89 -1.03, 44.47 3.06, 49.38 7.45 C54.3 11.83, 59.84 19.12, 61.19 25.7 C62.53 32.28, 61.04 41.33, 57.44 46.94 C53.85 52.55, 45.88 57.25, 39.62 59.38 C33.36 61.5, 25.82 62.17, 19.9 59.68 C13.98 57.19, 7.16 50.27, 4.09 44.42 C1.03 38.58, 0.2 30.8, 1.51 24.59 C2.81 18.38, 5.99 11.3, 11.91 7.16 C17.83 3.03, 32 0.34, 37.03 -0.22 C42.05 -0.79, 42.29 3.06, 42.07 3.77 M42.59 2.35 C48.78 4.4, 56.1 10.54, 59.25 16.21 C62.41 21.89, 63.48 30.07, 61.52 36.38 C59.56 42.68, 53.16 50.1, 47.48 54.03 C41.79 57.96, 33.64 60.3, 27.41 59.95 C21.17 59.6, 14.77 56.3, 10.07 51.94 C5.37 47.59, 0.02 40.11, -0.8 33.8 C-1.63 27.5, 1.23 19.78, 5.14 14.13 C9.06 8.49, 16.56 1.98, 22.7 -0.08 C28.85 -2.15, 38.51 1.24, 42.02 1.75 C45.54 2.25, 43.84 2.19, 43.77 2.94" stroke="#1e1e1e" stroke-width="1" fill="none"></path></g><g stroke-linecap="round"><g transform="translate(941.7882285609292 306.5690799904656) rotate(0 14.184695798335383 -12.631064246661253)"><path d="M0.03 -1.13 C0.69 -3.85, 1.9 -11.55, 4.04 -15.77 C6.18 -19.99, 9.53 -26.11, 12.88 -26.45 C16.23 -26.79, 21.52 -22.08, 24.12 -17.8 C26.73 -13.53, 32.35 -3.58, 28.51 -0.79 C24.66 2, 5.77 -1.25, 1.05 -1.07 M-1.41 0.88 C-0.84 -2.2, 0.75 -12.94, 3.55 -17.38 C6.35 -21.82, 11.91 -25.33, 15.39 -25.76 C18.86 -26.19, 22.45 -23.66, 24.4 -19.96 C26.35 -16.26, 31.28 -7.06, 27.11 -3.57 C22.93 -0.07, 3.72 0.55, -0.65 0.99" stroke="#1e1e1e" stroke-width="1" fill="none"></path></g></g><mask></mask><g stroke-linecap="round" transform="translate(948.9634734424512 268.13254854538394) rotate(0 7.262564248747708 6.354743717654259)"><path d="M6.47 0.13 C8.06 -0.08, 10.21 0.65, 11.42 1.36 C12.62 2.06, 13.24 3.1, 13.69 4.37 C14.15 5.65, 14.62 7.83, 14.15 9.01 C13.68 10.19, 12.17 10.88, 10.87 11.46 C9.57 12.04, 7.82 12.66, 6.34 12.5 C4.85 12.33, 2.98 11.6, 1.96 10.48 C0.93 9.37, 0.21 7.11, 0.2 5.8 C0.18 4.48, 0.81 3.54, 1.87 2.61 C2.92 1.68, 5.57 0.66, 6.53 0.22 C7.49 -0.23, 7.61 -0.14, 7.63 -0.07 M7.74 -0.62 C9 -0.77, 10.2 0.01, 11.2 0.87 C12.21 1.74, 13.33 3.22, 13.79 4.58 C14.25 5.94, 14.69 7.78, 13.97 9.05 C13.25 10.32, 10.96 11.61, 9.47 12.21 C7.98 12.81, 6.36 13.18, 5.03 12.65 C3.71 12.12, 2.4 10.31, 1.52 9.05 C0.64 7.78, -0.51 6.31, -0.25 5.06 C0.02 3.81, 1.87 2.31, 3.09 1.54 C4.32 0.78, 6.57 0.7, 7.11 0.47 C7.65 0.24, 6.28 0.25, 6.33 0.18" stroke="#1e1e1e" stroke-width="1" fill="none"></path></g><g transform="translate(903.0510384541385 310.5576415050194) rotate(0 53.17499923706055 6.524960067234261)"><text x="53.17499923706055" y="0" font-family="Virgil, Segoe UI Emoji" font-size="10.43993610757482px" fill="#1e1e1e" text-anchor="middle" style="white-space: pre;" direction="ltr" dominant-baseline="text-before-edge">Sistema de reservas</text></g><g stroke-linecap="round"><g transform="translate(918.9368645151467 286.9899763958369) rotate(0 -108.84407305442255 -71.55489987837035)"><path d="M0.87 1.02 C-35.34 -22.77, -181.64 -118.61, -218.18 -142.75 M-0.14 0.51 C-36.47 -23.66, -183.43 -120.79, -219.39 -144.68" stroke="#1e1e1e" stroke-width="1" fill="none"></path></g></g><mask></mask><g stroke-opacity="0.5" fill-opacity="0.5" stroke-linecap="round" transform="translate(367.6617908043215 62.24712184827939) rotate(0 176.36771096781422 265.0554741973436)"><path d="M32 0 C141.99 1.4, 245.97 1.63, 320.74 0 M32 0 C107.56 -3.34, 184.1 -2.03, 320.74 0 M320.74 0 C344.53 -1.01, 353.33 12.11, 352.74 32 M320.74 0 C337.64 -0.19, 349.79 10.41, 352.74 32 M352.74 32 C353.75 130.24, 352.45 228.09, 352.74 498.11 M352.74 32 C349.14 188.12, 347.91 346.22, 352.74 498.11 M352.74 498.11 C353.52 520.11, 339.2 530.06, 320.74 530.11 M352.74 498.11 C357.24 522.46, 339.39 528.66, 320.74 530.11 M320.74 530.11 C210.2 529.28, 96.24 533.27, 32 530.11 M320.74 530.11 C222.57 534.2, 127.05 533.06, 32 530.11 M32 530.11 C14.52 526.69, -2.27 520.49, 0 498.11 M32 530.11 C13.87 529.54, -4.56 521.91, 0 498.11 M0 498.11 C-3.21 316.49, -5.04 132.69, 0 32 M0 498.11 C2.19 366.51, 2.53 233.94, 0 32 M0 32 C3.1 12.37, 11.38 0.4, 32 0 M0 32 C0.87 10.77, 7.17 3.28, 32 0" stroke="#1971c2" stroke-width="4" fill="none"></path></g></svg>