<svg version="1.1" xmlns="http://www.w3.org/2000/svg" viewBox="0 0 957.318580099902 620.0798539130681" width="1914.637160199804" height="1240.1597078261361">
  <!-- svg-source:excalidraw -->
  
  <defs>
    <style class="style-fonts">
      @font-face {
        font-family: "Virgil";
        src: url("https://excalidraw.com/Virgil.woff2");
      }
      @font-face {
        font-family: "Cascadia";
        src: url("https://excalidraw.com/Cascadia.woff2");
      }
      @font-face {
        font-family: "Assistant";
        src: url("https://excalidraw.com/Assistant-Regular.woff2");
      }
    </style>
    
  </defs>
  <g stroke-opacity="0.3" fill-opacity="0.3" stroke-linecap="round" transform="translate(448.7428932300592 479.93880167392274) rotate(0 66.34641878858395 65.07052611957265)"><path d="M4.31 13.02 C4.31 13.02, 4.31 13.02, 4.31 13.02 M4.31 13.02 C4.31 13.02, 4.31 13.02, 4.31 13.02 M4.04 19.42 C9.04 16.12, 10.41 9.62, 15.2 6.59 M4.04 19.42 C8.02 15.25, 10.42 11.67, 15.2 6.59 M2.47 27.32 C10.86 20.56, 16.68 12.09, 25.43 0.91 M2.47 27.32 C9.66 18.11, 16.91 10.99, 25.43 0.91 M1.55 34.48 C9.75 28.82, 12.09 22.24, 31.08 0.51 M1.55 34.48 C11.44 22.17, 21.8 12.21, 31.08 0.51 M1.95 40.12 C12.09 28.22, 23.7 17.27, 34.75 2.38 M1.95 40.12 C10.75 30.01, 17.65 22.07, 34.75 2.38 M1.69 46.52 C15.07 32.67, 24.33 20.1, 40.39 1.99 M1.69 46.52 C10.01 37.16, 18.08 27.95, 40.39 1.99 M2.08 52.16 C18.76 33.49, 37.3 10.42, 45.38 2.35 M2.08 52.16 C14.75 38.33, 26.66 25.24, 45.38 2.35 M1.82 58.56 C15.87 42.15, 31.25 25.02, 51.02 1.95 M1.82 58.56 C12.81 44.66, 24.38 31.06, 51.02 1.95 M1.56 64.96 C13.83 50.62, 25.65 39.41, 56.01 2.31 M1.56 64.96 C16.52 49.03, 29.17 32.56, 56.01 2.31 M1.95 70.6 C20.26 49.17, 34.51 31.33, 61 2.67 M1.95 70.6 C24.35 45.3, 46.23 20.58, 61 2.67 M1.69 77 C26.5 50.55, 48.73 20.08, 66.64 2.28 M1.69 77 C17.04 60.51, 31.82 42.37, 66.64 2.28 M2.09 82.64 C24.85 60.56, 42.14 34.97, 71.63 2.64 M2.09 82.64 C20.9 60.97, 40.97 37.91, 71.63 2.64 M1.82 89.04 C23.57 60.46, 47.27 35.42, 77.27 2.25 M1.82 89.04 C20.69 66.74, 40.14 44.67, 77.27 2.25 M1.56 95.43 C30.54 64.49, 55.52 31.73, 82.26 2.61 M1.56 95.43 C30.36 63.24, 58.46 30.96, 82.26 2.61 M2.61 100.32 C30.91 68.86, 54.59 39.9, 87.9 2.21 M2.61 100.32 C34.38 62.43, 66.52 27.63, 87.9 2.21 M2.35 106.72 C28.88 75.65, 56.13 44.37, 92.89 2.57 M2.35 106.72 C24.73 80.17, 46.84 55.22, 92.89 2.57 M4.06 110.85 C29.49 79.86, 56.28 50.72, 98.53 2.18 M4.06 110.85 C24.13 88.32, 45.09 64.36, 98.53 2.18 M5.11 115.74 C35.58 79.99, 68.83 44.44, 103.52 2.54 M5.11 115.74 C36.05 78.08, 70.35 41.87, 103.52 2.54 M6.82 119.88 C35.33 86.12, 62.45 54.45, 109.16 2.14 M6.82 119.88 C32.79 90.17, 57.12 62.22, 109.16 2.14 M9.84 122.5 C50.62 76.11, 89.68 26.95, 113.49 3.26 M9.84 122.5 C38.81 89.54, 67.99 55.43, 113.49 3.26 M12.85 125.13 C41.64 92.22, 65.77 60.95, 117.82 4.37 M12.85 125.13 C41.64 91.57, 70.38 58.29, 117.82 4.37 M15.87 127.75 C54.99 84.24, 93.04 37.72, 121.5 6.24 M15.87 127.75 C41.28 99.36, 65.86 70.39, 121.5 6.24 M19.55 129.62 C39.36 102.62, 63.25 77.76, 124.52 8.87 M19.55 129.62 C56.09 86.91, 92.48 43.94, 124.52 8.87 M23.88 130.73 C60.62 90.33, 92.41 52.16, 127.54 11.49 M23.88 130.73 C51.72 100.11, 80.31 68.04, 127.54 11.49 M28.21 131.85 C49.46 108.31, 71.2 83.46, 129.9 14.87 M28.21 131.85 C60.61 96.64, 91.08 60.91, 129.9 14.87 M33.2 132.21 C58.16 101.52, 84.04 72.93, 131.61 19 M33.2 132.21 C64.77 95.73, 95.71 59.1, 131.61 19 M38.18 132.57 C68.87 100.33, 97.47 62.05, 132 24.65 M38.18 132.57 C70.41 93.06, 104.57 54.63, 132 24.65 M43.83 132.17 C73.11 100.13, 101.07 64.22, 133.05 29.53 M43.83 132.17 C67.41 105.41, 90.35 79.4, 133.05 29.53 M48.81 132.53 C79.56 98.43, 106.4 66.2, 134.1 34.42 M48.81 132.53 C78.17 100.33, 106.9 66.17, 134.1 34.42 M54.46 132.14 C69.7 111.29, 87.22 92.75, 134.5 40.07 M54.46 132.14 C72.68 113.41, 88.4 93.36, 134.5 40.07 M59.44 132.5 C75.48 114.41, 93.5 90.83, 134.23 46.46 M59.44 132.5 C78.23 111.29, 95.98 90.06, 134.23 46.46 M65.09 132.11 C78.26 114.3, 95.38 95.69, 133.97 52.86 M65.09 132.11 C80.24 115.26, 97.44 96.06, 133.97 52.86 M70.07 132.47 C89.87 107.26, 113.49 86.21, 134.37 58.5 M70.07 132.47 C91.33 106.37, 114.35 82.21, 134.37 58.5 M75.06 132.83 C95.79 109.47, 111.23 89.98, 134.11 64.9 M75.06 132.83 C90.89 115.52, 104.32 98.44, 134.11 64.9 M80.7 132.43 C96.84 115.72, 107.25 100.43, 133.85 71.3 M80.7 132.43 C102.73 107.91, 122.27 84.04, 133.85 71.3 M85.69 132.79 C102.3 116.13, 118.47 97.57, 134.24 76.94 M85.69 132.79 C100.54 114.87, 117.97 95.76, 134.24 76.94 M91.33 132.4 C103.42 120.44, 113.03 105.25, 133.98 83.34 M91.33 132.4 C100.47 119.95, 112.3 109.81, 133.98 83.34 M96.32 132.76 C109.23 119.82, 119.92 108.25, 133.72 89.74 M96.32 132.76 C110.44 116.53, 124.49 100.74, 133.72 89.74 M101.96 132.36 C113.81 120.47, 122.46 109.31, 134.11 95.38 M101.96 132.36 C111 122.58, 120.84 110.49, 134.11 95.38 M108.26 131.21 C119.39 119.33, 126.16 108.96, 133.85 101.78 M108.26 131.21 C114.4 124.67, 119.79 115.76, 133.85 101.78 M115.22 129.31 C121.98 120.92, 130.33 113.96, 134.24 107.42 M115.22 129.31 C121.29 121.59, 126.94 115.23, 134.24 107.42" stroke="#12b886" stroke-width="0.5" fill="none"></path><path d="M32.54 0 C61.19 -0.58, 87.79 -1.89, 100.16 0 M32.54 0 C59.6 0.2, 84.96 0.46, 100.16 0 M100.16 0 C122.6 -1.23, 132.98 10.28, 132.69 32.54 M100.16 0 C123.42 -0.19, 131.39 10.68, 132.69 32.54 M132.69 32.54 C131.11 47.87, 131.21 64.61, 132.69 97.61 M132.69 32.54 C132.44 54.75, 132.5 77.7, 132.69 97.61 M132.69 97.61 C133.04 117.91, 120.07 128.53, 100.16 130.14 M132.69 97.61 C131.08 117.51, 122.04 128.61, 100.16 130.14 M100.16 130.14 C84.96 131.41, 71.46 130.06, 32.54 130.14 M100.16 130.14 C81.7 130.43, 63.26 130.36, 32.54 130.14 M32.54 130.14 C10.84 128.37, 0.3 120.57, 0 97.61 M32.54 130.14 C12.95 129.35, -2.02 118.25, 0 97.61 M0 97.61 C0.8 75.3, 0.49 54.01, 0 32.54 M0 97.61 C1.3 75.69, 0 52.8, 0 32.54 M0 32.54 C-1.91 11.4, 11.19 0.91, 32.54 0 M0 32.54 C-1.49 11.73, 11.89 0.69, 32.54 0" stroke="#087f5b" stroke-width="1" fill="none"></path></g><g stroke-opacity="0.3" fill-opacity="0.3" stroke-linecap="round" transform="translate(440.07958200747834 471.42859757161807) rotate(0 66.34641878858395 65.07052611957265)"><path d="M4.31 13.02 C4.31 13.02, 4.31 13.02, 4.31 13.02 M4.31 13.02 C4.31 13.02, 4.31 13.02, 4.31 13.02 M1.42 22.44 C3.46 16.69, 8.14 12.5, 18.48 2.81 M1.42 22.44 C5.23 17.28, 9.92 13.19, 18.48 2.81 M0.5 29.59 C5.89 24.09, 12.79 15.57, 25.43 0.91 M0.5 29.59 C9.79 19.55, 17.39 8.37, 25.43 0.91 M0.24 35.99 C7.97 26.11, 20.35 12.61, 31.08 0.51 M0.24 35.99 C11.9 23.95, 22.29 11.19, 31.08 0.51 M0.64 41.63 C9.52 33.49, 17.11 19.91, 36.72 0.12 M0.64 41.63 C10.42 30.12, 22.12 16.48, 36.72 0.12 M0.37 48.03 C13.57 32.02, 26.68 13.95, 41.71 0.48 M0.37 48.03 C13.58 32.9, 28.91 15.53, 41.71 0.48 M0.11 54.42 C17.77 32.65, 34.33 14.53, 47.35 0.08 M0.11 54.42 C13.57 39.85, 26.58 23.03, 47.35 0.08 M0.51 60.07 C16.38 41.93, 28.26 27.79, 52.34 0.45 M0.51 60.07 C18.55 38.72, 35.99 17.79, 52.34 0.45 M0.25 66.46 C22.97 42.43, 42.68 16.38, 57.98 0.05 M0.25 66.46 C16.83 45.9, 35.14 26, 57.98 0.05 M0.64 72.11 C17.18 51.56, 38.11 28.98, 62.97 0.41 M0.64 72.11 C24.72 44.96, 48.07 18.75, 62.97 0.41 M0.38 78.51 C18.25 54.7, 38.58 30.91, 67.95 0.77 M0.38 78.51 C17.34 58.02, 35.55 37.21, 67.95 0.77 M0.12 84.9 C20.08 58.41, 43.69 32.67, 73.6 0.38 M0.12 84.9 C28.59 52.37, 55.93 20.93, 73.6 0.38 M0.51 90.55 C31.3 55.92, 59.89 24.13, 78.58 0.74 M0.51 90.55 C26.09 61.5, 51.5 31.07, 78.58 0.74 M0.25 96.94 C30.17 59.7, 64.13 21.8, 84.23 0.34 M0.25 96.94 C26.47 66.84, 52.62 35.95, 84.23 0.34 M0.65 102.59 C31.68 65.51, 66.42 28.68, 89.21 0.7 M0.65 102.59 C36.1 63.89, 70.13 21.79, 89.21 0.7 M1.7 107.48 C32.44 71.56, 64.15 35.49, 94.86 0.31 M1.7 107.48 C33.15 71.68, 63.97 35.9, 94.86 0.31 M2.75 112.36 C23.87 88.62, 44.04 65.76, 99.84 0.67 M2.75 112.36 C26.8 84.86, 50.65 56.33, 99.84 0.67 M4.45 116.5 C41.65 76.34, 78.04 34.85, 105.49 0.27 M4.45 116.5 C27.48 93.41, 47.87 67.36, 105.49 0.27 M6.82 119.88 C44.06 75.96, 80.21 33.06, 109.82 1.39 M6.82 119.88 C43.19 78.06, 81.59 35.82, 109.82 1.39 M9.84 122.5 C46.51 76.98, 85.77 33.19, 114.15 2.5 M9.84 122.5 C39.98 87.3, 69.02 54.11, 114.15 2.5 M12.85 125.13 C39.67 90.67, 70.61 57.75, 117.82 4.37 M12.85 125.13 C44.94 88.09, 78.69 50.85, 117.82 4.37 M16.53 126.99 C42.22 95.17, 67.38 65.67, 121.5 6.24 M16.53 126.99 C48.28 89.78, 80.09 52.93, 121.5 6.24 M20.2 128.86 C53.69 91.43, 86.34 57.69, 124.52 8.87 M20.2 128.86 C57.54 84.68, 96.43 39.65, 124.52 8.87 M24.54 129.98 C46.49 103.21, 72.24 73.68, 127.54 11.49 M24.54 129.98 C48.24 103.54, 69.42 76.66, 127.54 11.49 M29.52 130.34 C52.6 103.87, 75.52 76.71, 129.9 14.87 M29.52 130.34 C59.18 95.38, 88.7 59.49, 129.9 14.87 M35.17 129.94 C66.39 93.91, 97.61 60.72, 130.95 19.76 M35.17 129.94 C70.01 88.83, 106.57 46.8, 130.95 19.76 M40.15 130.3 C64.96 97.78, 92.49 71.73, 132 24.65 M40.15 130.3 C76.01 89.92, 110.82 50.68, 132 24.65 M45.14 130.66 C65.23 104.84, 85.61 81.66, 132.4 30.29 M45.14 130.66 C71.59 100.52, 97.19 71, 132.4 30.29 M50.78 130.27 C78.85 97.52, 109.68 60.97, 132.79 35.93 M50.78 130.27 C81.48 94.03, 109.88 60.45, 132.79 35.93 M55.77 130.63 C77.57 105.35, 98.71 78.39, 132.53 42.33 M55.77 130.63 C81.01 99.89, 106.49 70.34, 132.53 42.33 M61.41 130.24 C75.63 110.95, 91.28 96.79, 132.92 47.97 M61.41 130.24 C83.45 104.39, 105.86 77.99, 132.92 47.97 M66.4 130.6 C88.19 105.54, 106.89 82.32, 132.66 54.37 M66.4 130.6 C82.56 112.58, 96.68 95.39, 132.66 54.37 M72.04 130.2 C87.92 115.61, 101.26 97.18, 132.4 60.77 M72.04 130.2 C97.32 102.9, 120.59 74.92, 132.4 60.77 M77.03 130.56 C92.23 111.31, 110.81 90.2, 132.79 66.41 M77.03 130.56 C91.43 112.59, 107.58 93.73, 132.79 66.41 M82.02 130.92 C93.92 114.71, 111.2 98.29, 132.53 72.81 M82.02 130.92 C93.59 116.27, 106.86 102.53, 132.53 72.81 M87.66 130.53 C100.09 118.01, 110.11 104.91, 132.27 79.21 M87.66 130.53 C99.6 117.21, 109.5 104.83, 132.27 79.21 M92.65 130.89 C100.91 118.27, 111.21 108.58, 132.67 84.85 M92.65 130.89 C102.8 121.51, 111.34 110.39, 132.67 84.85 M98.29 130.49 C106.51 123.09, 114.55 112.44, 132.4 91.25 M98.29 130.49 C105.85 121.89, 114.28 111.61, 132.4 91.25 M103.93 130.1 C111.78 121, 120.65 109.77, 132.14 97.65 M103.93 130.1 C115.22 116.9, 126.31 104.94, 132.14 97.65 M109.58 129.7 C114.29 122.41, 121.53 114.57, 132.54 103.29 M109.58 129.7 C117.01 118.98, 126.73 110, 132.54 103.29 M117.19 127.04 C122.62 122.72, 124.93 117.83, 130.96 111.2 M117.19 127.04 C119.77 123.4, 124.59 119.1, 130.96 111.2" stroke="#12b886" stroke-width="0.5" fill="none"></path><path d="M32.54 0 C59.43 -1.36, 85.13 1.11, 100.16 0 M32.54 0 C50.16 0.26, 69.39 -0.61, 100.16 0 M100.16 0 C122.14 -0.56, 134.06 10.68, 132.69 32.54 M100.16 0 C120.55 -0.17, 131.13 10.67, 132.69 32.54 M132.69 32.54 C130.76 59.39, 133.26 84.21, 132.69 97.61 M132.69 32.54 C131.44 47.39, 132.35 63.11, 132.69 97.61 M132.69 97.61 C130.92 117.68, 120.44 128.59, 100.16 130.14 M132.69 97.61 C132.88 117.77, 119.55 130.15, 100.16 130.14 M100.16 130.14 C79.34 130.63, 61.28 132.05, 32.54 130.14 M100.16 130.14 C74.47 129.57, 47.9 129.05, 32.54 130.14 M32.54 130.14 C11.14 131.41, 1.83 118.61, 0 97.61 M32.54 130.14 C8.83 129.1, 1.09 120.49, 0 97.61 M0 97.61 C0.46 82.27, 0.49 62.49, 0 32.54 M0 97.61 C-0.99 80.58, -1.54 64.16, 0 32.54 M0 32.54 C0.34 11.76, 9.55 0.77, 32.54 0 M0 32.54 C1.05 11.53, 12.95 -0.95, 32.54 0" stroke="#087f5b" stroke-width="1" fill="none"></path></g><g stroke-opacity="0.3" fill-opacity="0.3" stroke-linecap="round" transform="translate(430.4465923564441 461.91043826079533) rotate(0 66.34641878858395 65.07052611957265)"><path d="M4.31 13.02 C4.31 13.02, 4.31 13.02, 4.31 13.02 M4.31 13.02 C4.31 13.02, 4.31 13.02, 4.31 13.02 M1.42 22.44 C7.35 13.95, 12.46 10.25, 18.48 2.81 M1.42 22.44 C5.82 18.1, 9.14 13.58, 18.48 2.81 M0.5 29.59 C10.31 18.68, 20.93 7.7, 25.43 0.91 M0.5 29.59 C4.48 22.91, 10.69 18.92, 25.43 0.91 M0.24 35.99 C12.51 22.33, 24.38 9.85, 31.08 0.51 M0.24 35.99 C6.44 28.79, 11.71 21.36, 31.08 0.51 M0.64 41.63 C11.1 26.36, 23.65 15.49, 36.72 0.12 M0.64 41.63 C9.14 31.51, 17.75 23.45, 36.72 0.12 M0.37 48.03 C10.34 33.22, 24.16 20.76, 41.71 0.48 M0.37 48.03 C15.64 30.79, 29.25 15.05, 41.71 0.48 M0.11 54.42 C17.36 34.4, 35.15 15.13, 47.35 0.08 M0.11 54.42 C14.33 36.86, 28.84 20.47, 47.35 0.08 M0.51 60.07 C13.12 44.99, 29.74 26.98, 52.34 0.45 M0.51 60.07 C13.35 43.98, 28.69 29.36, 52.34 0.45 M0.25 66.46 C13.38 49.36, 28.72 34.75, 57.98 0.05 M0.25 66.46 C19.68 45.02, 38.83 23.29, 57.98 0.05 M0.64 72.11 C15.52 55.58, 28.95 42.8, 62.97 0.41 M0.64 72.11 C18.35 52.61, 35.09 32.11, 62.97 0.41 M0.38 78.51 C26.22 46.93, 53.17 17.05, 67.95 0.77 M0.38 78.51 C26.29 48.67, 51.71 20.93, 67.95 0.77 M0.12 84.9 C28.65 52.28, 58.94 18.95, 73.6 0.38 M0.12 84.9 C29.12 51.65, 59.27 17.19, 73.6 0.38 M0.51 90.55 C15.56 74.19, 33.1 54.37, 78.58 0.74 M0.51 90.55 C25.29 60.98, 50.47 33.73, 78.58 0.74 M0.25 96.94 C31.45 61.25, 60.35 28.87, 84.23 0.34 M0.25 96.94 C26.58 65.86, 53.53 37.11, 84.23 0.34 M0.65 102.59 C24.7 77.61, 47.44 52.24, 89.21 0.7 M0.65 102.59 C20.22 77.21, 41.11 53.77, 89.21 0.7 M1.7 107.48 C31.45 73.07, 63.4 39.02, 94.86 0.31 M1.7 107.48 C21.79 83.98, 41.95 59.49, 94.86 0.31 M2.75 112.36 C24.24 87.69, 47.54 60.17, 99.84 0.67 M2.75 112.36 C40.38 67.96, 78.46 24.1, 99.84 0.67 M4.45 116.5 C40.97 75.98, 74.59 31.02, 105.49 0.27 M4.45 116.5 C25.74 89.28, 49.12 64.31, 105.49 0.27 M6.82 119.88 C28.26 93.09, 53.2 68.89, 109.82 1.39 M6.82 119.88 C34.64 89.9, 60.67 59.37, 109.82 1.39 M9.84 122.5 C48.7 78.2, 87.34 34.21, 114.15 2.5 M9.84 122.5 C40.46 87.46, 72.06 51.99, 114.15 2.5 M12.85 125.13 C36.88 98.7, 60.88 71.21, 117.82 4.37 M12.85 125.13 C45.55 89.26, 75.51 53.59, 117.82 4.37 M16.53 126.99 C49.73 87.48, 85.44 48.58, 121.5 6.24 M16.53 126.99 C52.81 85.12, 90.34 41.87, 121.5 6.24 M20.2 128.86 C43.16 105.81, 65.59 79.4, 124.52 8.87 M20.2 128.86 C59.97 82.89, 97.97 39.24, 124.52 8.87 M24.54 129.98 C50.9 99.32, 75.9 69.65, 127.54 11.49 M24.54 129.98 C58.59 88.14, 94.59 47.01, 127.54 11.49 M29.52 130.34 C60.95 93.35, 92.23 59.98, 129.9 14.87 M29.52 130.34 C63.28 89.51, 98.54 49.96, 129.9 14.87 M35.17 129.94 C56.38 107.51, 78.13 83.29, 130.95 19.76 M35.17 129.94 C72.65 86.95, 108.86 45.36, 130.95 19.76 M40.15 130.3 C78.02 90.94, 114.96 46.88, 132 24.65 M40.15 130.3 C64.19 103.4, 87.62 75.16, 132 24.65 M45.14 130.66 C74.89 95.72, 106.28 62.53, 132.4 30.29 M45.14 130.66 C64.53 108.2, 84.68 86.1, 132.4 30.29 M50.78 130.27 C75.86 100.57, 100.73 75.09, 132.79 35.93 M50.78 130.27 C80.67 94.9, 113.02 57.51, 132.79 35.93 M55.77 130.63 C71.92 108.56, 92.16 91.78, 132.53 42.33 M55.77 130.63 C83.17 98.79, 110.81 65.77, 132.53 42.33 M61.41 130.24 C88.76 100.7, 117.83 68.6, 132.92 47.97 M61.41 130.24 C86.28 101.23, 112.63 70.36, 132.92 47.97 M66.4 130.6 C83.96 108.22, 103.12 85.3, 132.66 54.37 M66.4 130.6 C89.77 102.78, 112.66 75.49, 132.66 54.37 M72.04 130.2 C84.92 113.99, 98.83 99.35, 132.4 60.77 M72.04 130.2 C85.01 114.28, 98.34 100.32, 132.4 60.77 M77.03 130.56 C88.92 116.03, 101.67 103.79, 132.79 66.41 M77.03 130.56 C93 111.57, 109 95.08, 132.79 66.41 M82.02 130.92 C96.96 115.66, 106.71 103.69, 132.53 72.81 M82.02 130.92 C93.88 118.28, 104.51 105.61, 132.53 72.81 M87.66 130.53 C103.56 112.42, 117.66 92.2, 132.27 79.21 M87.66 130.53 C100.59 114.53, 113.94 99.82, 132.27 79.21 M92.65 130.89 C105.82 115.67, 119.56 96.96, 132.67 84.85 M92.65 130.89 C100.62 121.23, 108.02 112.49, 132.67 84.85 M98.29 130.49 C109.49 118.15, 116.33 107.21, 132.4 91.25 M98.29 130.49 C108.29 118.38, 117.75 108.78, 132.4 91.25 M103.93 130.1 C112.25 119.65, 122.7 109.94, 132.14 97.65 M103.93 130.1 C115.88 117.12, 126.22 104.96, 132.14 97.65 M109.58 129.7 C114.82 122.64, 123.35 115.36, 132.54 103.29 M109.58 129.7 C118.98 119.57, 126.81 109.96, 132.54 103.29 M117.19 127.04 C121.15 121.97, 123.11 118.35, 130.96 111.2 M117.19 127.04 C121.06 123.16, 123.64 119.37, 130.96 111.2" stroke="#12b886" stroke-width="0.5" fill="none"></path><path d="M32.54 0 C54.43 1.55, 72.04 1.56, 100.16 0 M32.54 0 C53.15 -0.78, 73.16 -0.45, 100.16 0 M100.16 0 C123.22 -0.17, 131.56 10.7, 132.69 32.54 M100.16 0 C120.29 -0.17, 134.63 9.08, 132.69 32.54 M132.69 32.54 C133.29 54.44, 131.03 71.41, 132.69 97.61 M132.69 32.54 C132.39 46.4, 131.32 60.84, 132.69 97.61 M132.69 97.61 C131.29 117.74, 122.01 128.81, 100.16 130.14 M132.69 97.61 C130.4 119.3, 121.48 128.23, 100.16 130.14 M100.16 130.14 C74.74 131.59, 52.01 130.57, 32.54 130.14 M100.16 130.14 C81.89 129.01, 63.78 130.53, 32.54 130.14 M32.54 130.14 C12.68 129.46, -1.75 118.39, 0 97.61 M32.54 130.14 C11.93 131.33, -0.91 120.6, 0 97.61 M0 97.61 C0.59 75.89, -1.09 58.44, 0 32.54 M0 97.61 C-0.7 75.75, 0.43 53.79, 0 32.54 M0 32.54 C-1.3 11.62, 11.76 0.6, 32.54 0 M0 32.54 C2.1 9.89, 10.33 -0.61, 32.54 0" stroke="#087f5b" stroke-width="1" fill="none"></path></g><g transform="translate(457.50042200672414 514.87775229084) rotate(0 48.192100524902344 20)"><text x="48.192100524902344" y="0" font-family="Virgil, Segoe UI Emoji" font-size="16px" fill="#000000" text-anchor="middle" style="white-space: pre;" direction="ltr" dominant-baseline="text-before-edge">Housekeeping</text><text x="48.192100524902344" y="20" font-family="Virgil, Segoe UI Emoji" font-size="16px" fill="#000000" text-anchor="middle" style="white-space: pre;" direction="ltr" dominant-baseline="text-before-edge">Service</text></g><g stroke-opacity="0.3" fill-opacity="0.3" stroke-linecap="round" transform="translate(448.7428932300592 170.19370474168636) rotate(0 66.34641878858395 65.07052611957265)"><path d="M4.31 13.02 C4.31 13.02, 4.31 13.02, 4.31 13.02 M4.31 13.02 C4.31 13.02, 4.31 13.02, 4.31 13.02 M1.42 22.44 C6.91 16.21, 12.17 12.93, 18.48 2.81 M1.42 22.44 C8.72 14.73, 14.87 7.78, 18.48 2.81 M0.5 29.59 C5.36 21.06, 13.96 12.66, 25.43 0.91 M0.5 29.59 C6.56 24.12, 10.49 16.85, 25.43 0.91 M0.24 35.99 C12.47 22.91, 23.15 8.47, 31.08 0.51 M0.24 35.99 C7.57 27.64, 16.18 17.32, 31.08 0.51 M0.64 41.63 C14.39 26.09, 25.99 9.17, 36.72 0.12 M0.64 41.63 C11.77 29.2, 22.1 16.08, 36.72 0.12 M0.37 48.03 C11.03 38.31, 20.27 27.16, 41.71 0.48 M0.37 48.03 C11.98 33.56, 24.52 20.42, 41.71 0.48 M0.11 54.42 C19.44 33.5, 37.95 10.56, 47.35 0.08 M0.11 54.42 C15.73 36.03, 31.46 16.73, 47.35 0.08 M0.51 60.07 C14.44 43.88, 29.97 25.31, 52.34 0.45 M0.51 60.07 C15.05 42.08, 31.17 25.01, 52.34 0.45 M0.25 66.46 C20.51 43.36, 38.62 24.08, 57.98 0.05 M0.25 66.46 C21.92 43.72, 41.07 21.03, 57.98 0.05 M0.64 72.11 C18.4 54.2, 33.86 32.39, 62.97 0.41 M0.64 72.11 C15.67 55.82, 30.16 39.71, 62.97 0.41 M0.38 78.51 C18.67 55.47, 38.9 34.58, 67.95 0.77 M0.38 78.51 C22.68 50.28, 46.79 23.68, 67.95 0.77 M0.12 84.9 C28.19 52.16, 52.79 21.58, 73.6 0.38 M0.12 84.9 C16.18 66.16, 32.67 45.92, 73.6 0.38 M0.51 90.55 C22.29 69.88, 39.29 45.38, 78.58 0.74 M0.51 90.55 C24.66 63.54, 49.04 35.43, 78.58 0.74 M0.25 96.94 C28 64.87, 57.38 27.55, 84.23 0.34 M0.25 96.94 C25.64 68, 51.78 38.31, 84.23 0.34 M0.65 102.59 C28.83 71.7, 59.13 38.04, 89.21 0.7 M0.65 102.59 C31.3 66.5, 61.31 32.12, 89.21 0.7 M1.7 107.48 C37.49 68.76, 71.44 28.34, 94.86 0.31 M1.7 107.48 C33.3 73.16, 64.46 36.78, 94.86 0.31 M2.75 112.36 C27.67 83.06, 57.1 51.61, 99.84 0.67 M2.75 112.36 C34.03 76.52, 66.14 42, 99.84 0.67 M4.45 116.5 C22.28 90.9, 44.33 66.23, 105.49 0.27 M4.45 116.5 C26.73 91.04, 49.68 62.99, 105.49 0.27 M6.82 119.88 C29.43 96.54, 47.61 73.49, 109.82 1.39 M6.82 119.88 C33.43 89.41, 60.28 58.81, 109.82 1.39 M9.84 122.5 C32.73 98.56, 53.08 72.22, 114.15 2.5 M9.84 122.5 C48.39 76.15, 88.15 32, 114.15 2.5 M12.85 125.13 C41.64 91.63, 72.94 57.06, 117.82 4.37 M12.85 125.13 C48.67 85.72, 85.34 44.21, 117.82 4.37 M16.53 126.99 C48.03 86.6, 81.29 48.62, 121.5 6.24 M16.53 126.99 C56.84 77.76, 98.07 31.28, 121.5 6.24 M20.2 128.86 C63.23 82.6, 101.71 32.2, 124.52 8.87 M20.2 128.86 C51.04 94.32, 80.3 59.79, 124.52 8.87 M24.54 129.98 C54.25 94.98, 85.51 60.33, 127.54 11.49 M24.54 129.98 C62.67 86.74, 99.81 42.98, 127.54 11.49 M29.52 130.34 C61.14 95.45, 92.69 56.17, 129.9 14.87 M29.52 130.34 C66.93 86.7, 106.83 41.67, 129.9 14.87 M35.17 129.94 C62.14 97.78, 93.92 61.31, 130.95 19.76 M35.17 129.94 C55.26 105.95, 77 80.95, 130.95 19.76 M40.15 130.3 C71.07 94.22, 99.27 62.63, 132 24.65 M40.15 130.3 C64.87 102.56, 89.75 75.08, 132 24.65 M45.14 130.66 C70.97 104.98, 94.55 76.85, 132.4 30.29 M45.14 130.66 C74.74 96.96, 103.99 61.05, 132.4 30.29 M50.78 130.27 C81.23 95.64, 114.06 59.9, 132.79 35.93 M50.78 130.27 C76.79 98.53, 102.13 69.95, 132.79 35.93 M55.77 130.63 C85.71 100.06, 110.9 69.66, 132.53 42.33 M55.77 130.63 C85.84 96.23, 114.77 62.07, 132.53 42.33 M61.41 130.24 C84.49 101.14, 108.71 75.78, 132.92 47.97 M61.41 130.24 C83.11 107.31, 102.29 82.83, 132.92 47.97 M66.4 130.6 C85.57 109.05, 102.81 87.63, 132.66 54.37 M66.4 130.6 C82.38 114.47, 97.15 95.56, 132.66 54.37 M72.04 130.2 C95.38 102.78, 118.02 75.67, 132.4 60.77 M72.04 130.2 C87.54 111.18, 104.84 94.12, 132.4 60.77 M77.03 130.56 C100.61 106.54, 122.62 79.03, 132.79 66.41 M77.03 130.56 C89.4 115.72, 102.53 103.66, 132.79 66.41 M82.02 130.92 C100.87 110.83, 121.86 85.74, 132.53 72.81 M82.02 130.92 C97.44 113.78, 111.15 97.25, 132.53 72.81 M87.66 130.53 C99.18 118.56, 108.34 107.82, 132.27 79.21 M87.66 130.53 C104.46 111.48, 119.35 93.95, 132.27 79.21 M92.65 130.89 C104.89 119.46, 111.36 108.6, 132.67 84.85 M92.65 130.89 C107.53 113.91, 122.12 95.46, 132.67 84.85 M98.29 130.49 C108.55 118.41, 117.54 108.34, 132.4 91.25 M98.29 130.49 C108.78 118.6, 117.43 107.39, 132.4 91.25 M103.93 130.1 C112.42 121.01, 119.85 110.08, 132.14 97.65 M103.93 130.1 C112.26 120.25, 118.39 112.88, 132.14 97.65 M109.58 129.7 C118.23 119.34, 125.72 109.56, 132.54 103.29 M109.58 129.7 C117.05 120.63, 126.49 110.8, 132.54 103.29 M117.19 127.04 C121.83 122.37, 124.02 119.67, 130.96 111.2 M117.19 127.04 C121.77 121.42, 125.89 118.85, 130.96 111.2" stroke="#12b886" stroke-width="0.5" fill="none"></path><path d="M32.54 0 C45.44 1.57, 58.73 1.45, 100.16 0 M32.54 0 C50.95 -0.14, 67.88 -0.21, 100.16 0 M100.16 0 C119.89 1.24, 134.13 12.2, 132.69 32.54 M100.16 0 C121.87 1.26, 133.95 12.48, 132.69 32.54 M132.69 32.54 C132.91 49.33, 130.58 67.98, 132.69 97.61 M132.69 32.54 C132.61 47.77, 132.82 63.42, 132.69 97.61 M132.69 97.61 C130.76 121.11, 122.78 129.88, 100.16 130.14 M132.69 97.61 C130.4 118.28, 123.67 131.4, 100.16 130.14 M100.16 130.14 C81.01 128.39, 61.09 130.27, 32.54 130.14 M100.16 130.14 C75.21 130.3, 49.66 129.44, 32.54 130.14 M32.54 130.14 C9.45 128.21, -0.74 119.33, 0 97.61 M32.54 130.14 C8.9 129.17, -0.12 119.22, 0 97.61 M0 97.61 C-1.63 74.23, 0.44 55.06, 0 32.54 M0 97.61 C0.92 76.25, -0.26 54.12, 0 32.54 M0 32.54 C-0.67 9.47, 9.82 -0.36, 32.54 0 M0 32.54 C2.27 12.92, 9.94 0.09, 32.54 0" stroke="#087f5b" stroke-width="1" fill="none"></path></g><g stroke-opacity="0.3" fill-opacity="0.3" stroke-linecap="round" transform="translate(440.07958200747834 161.6835006393817) rotate(0 66.34641878858395 65.07052611957265)"><path d="M4.31 13.02 C4.31 13.02, 4.31 13.02, 4.31 13.02 M4.31 13.02 C4.31 13.02, 4.31 13.02, 4.31 13.02 M1.42 22.44 C9.24 16.57, 15.85 5.82, 18.48 2.81 M1.42 22.44 C6.38 17.22, 10.85 11.28, 18.48 2.81 M0.5 29.59 C8.68 19.22, 14.92 10.91, 25.43 0.91 M0.5 29.59 C5.18 22.34, 11.65 16.17, 25.43 0.91 M0.24 35.99 C10.2 22.91, 18.91 14.91, 31.08 0.51 M0.24 35.99 C6.73 28.18, 13.67 22.28, 31.08 0.51 M0.64 41.63 C9.8 28.06, 22.08 18.06, 36.72 0.12 M0.64 41.63 C12.24 27.53, 24.51 12.82, 36.72 0.12 M0.37 48.03 C11.87 36.06, 22.95 19.46, 41.71 0.48 M0.37 48.03 C16.77 29.75, 33.12 12.96, 41.71 0.48 M0.11 54.42 C11.33 41.02, 21.94 29.87, 47.35 0.08 M0.11 54.42 C18.44 32.18, 37.21 11.67, 47.35 0.08 M0.51 60.07 C15.39 42.13, 29.57 28.2, 52.34 0.45 M0.51 60.07 C11.87 47.96, 23.63 33.86, 52.34 0.45 M0.25 66.46 C10.68 55.35, 24.2 38.28, 57.98 0.05 M0.25 66.46 C17.95 45.98, 35.82 23.66, 57.98 0.05 M0.64 72.11 C13.82 53.99, 27.26 38.74, 62.97 0.41 M0.64 72.11 C16.52 54.5, 31.14 36.02, 62.97 0.41 M0.38 78.51 C20.24 56.5, 43.22 33.16, 67.95 0.77 M0.38 78.51 C21.21 55.22, 42.98 31.72, 67.95 0.77 M0.12 84.9 C22.81 56.43, 47.29 29.63, 73.6 0.38 M0.12 84.9 C27.93 51.82, 55.31 19.84, 73.6 0.38 M0.51 90.55 C15.36 70.38, 34.68 50.67, 78.58 0.74 M0.51 90.55 C16.85 71.76, 33.87 52.84, 78.58 0.74 M0.25 96.94 C25.53 64.6, 52.68 34.69, 84.23 0.34 M0.25 96.94 C22.4 71.8, 44.14 47.74, 84.23 0.34 M0.65 102.59 C22.62 78.96, 42.63 55.98, 89.21 0.7 M0.65 102.59 C29.31 69.69, 59.68 35.02, 89.21 0.7 M1.7 107.48 C33.71 70.52, 67.57 30.8, 94.86 0.31 M1.7 107.48 C28.27 76.39, 53.35 46.07, 94.86 0.31 M2.75 112.36 C24.99 88.48, 45.12 65.22, 99.84 0.67 M2.75 112.36 C25.44 88.65, 45.46 63.58, 99.84 0.67 M4.45 116.5 C41.79 72.83, 77.77 33.98, 105.49 0.27 M4.45 116.5 C25.96 90.12, 47.17 64.86, 105.49 0.27 M6.82 119.88 C28.59 92.97, 53.8 65.33, 109.82 1.39 M6.82 119.88 C37.52 84.8, 67.32 47.58, 109.82 1.39 M9.84 122.5 C45.56 79.23, 82.61 40.22, 114.15 2.5 M9.84 122.5 C48.78 79.36, 86.52 34.59, 114.15 2.5 M12.85 125.13 C52.95 80.48, 92.56 34.39, 117.82 4.37 M12.85 125.13 C36.37 98.72, 58.31 72.68, 117.82 4.37 M16.53 126.99 C56.73 79.89, 99.93 35.53, 121.5 6.24 M16.53 126.99 C58.46 79.84, 101.62 31.83, 121.5 6.24 M20.2 128.86 C48.47 91.72, 79.68 57.94, 124.52 8.87 M20.2 128.86 C49.3 94.38, 79.45 60.43, 124.52 8.87 M24.54 129.98 C53.17 98.24, 83.57 62.1, 127.54 11.49 M24.54 129.98 C57.95 90.53, 92.01 53.06, 127.54 11.49 M29.52 130.34 C54.8 98.97, 83.15 71.29, 129.9 14.87 M29.52 130.34 C59.36 96.96, 87.14 64.64, 129.9 14.87 M35.17 129.94 C66.57 93.88, 94.16 61.7, 130.95 19.76 M35.17 129.94 C66.59 93.81, 96.4 58.97, 130.95 19.76 M40.15 130.3 C69.41 96.86, 100.2 60.03, 132 24.65 M40.15 130.3 C61.24 107.19, 81.54 82.38, 132 24.65 M45.14 130.66 C68.41 104.55, 92.48 77.36, 132.4 30.29 M45.14 130.66 C70.38 99.47, 97.6 69.78, 132.4 30.29 M50.78 130.27 C82.92 95.77, 112.46 61.1, 132.79 35.93 M50.78 130.27 C81.39 95.5, 114.05 57.68, 132.79 35.93 M55.77 130.63 C72.46 111.54, 92.28 88.63, 132.53 42.33 M55.77 130.63 C81.57 100.05, 108.25 70.98, 132.53 42.33 M61.41 130.24 C76.85 113.33, 94.9 91.58, 132.92 47.97 M61.41 130.24 C80.84 105.83, 102.16 82.28, 132.92 47.97 M66.4 130.6 C90.39 102.24, 115.19 70.61, 132.66 54.37 M66.4 130.6 C84.63 108.12, 103.52 88.62, 132.66 54.37 M72.04 130.2 C93.15 105.06, 115.38 79.58, 132.4 60.77 M72.04 130.2 C92.67 108.95, 112 85.51, 132.4 60.77 M77.03 130.56 C99.59 104.72, 118.4 78.65, 132.79 66.41 M77.03 130.56 C93.77 113.82, 109.54 95.11, 132.79 66.41 M82.02 130.92 C95.06 116.05, 104.14 104.05, 132.53 72.81 M82.02 130.92 C96.68 113.45, 112.5 94.83, 132.53 72.81 M87.66 130.53 C98.35 118.75, 108.93 106.87, 132.27 79.21 M87.66 130.53 C100.28 115.66, 113.54 100.12, 132.27 79.21 M92.65 130.89 C99.96 120.92, 113.18 108.63, 132.67 84.85 M92.65 130.89 C105.69 114.45, 120.5 98.99, 132.67 84.85 M98.29 130.49 C110.01 117.36, 123.62 102.98, 132.4 91.25 M98.29 130.49 C104.26 122.5, 112.31 114.59, 132.4 91.25 M103.93 130.1 C111.46 119.7, 118.79 113.66, 132.14 97.65 M103.93 130.1 C113.13 119.28, 124.82 106.67, 132.14 97.65 M109.58 129.7 C118.54 118.06, 127.92 109.59, 132.54 103.29 M109.58 129.7 C116.62 122.19, 120.77 115.34, 132.54 103.29 M117.19 127.04 C122.78 121, 126.56 114.92, 130.96 111.2 M117.19 127.04 C122.83 122.4, 127.06 114.86, 130.96 111.2" stroke="#12b886" stroke-width="0.5" fill="none"></path><path d="M32.54 0 C52.82 1.02, 75.52 -2.46, 100.16 0 M32.54 0 C53.97 -0.08, 74.34 0.64, 100.16 0 M100.16 0 C123.28 1.35, 132.71 11.94, 132.69 32.54 M100.16 0 C123.11 1.63, 132.01 10.17, 132.69 32.54 M132.69 32.54 C130.9 49.14, 131.45 66.69, 132.69 97.61 M132.69 32.54 C131.98 55.66, 131.36 78.15, 132.69 97.61 M132.69 97.61 C133.62 119.03, 119.86 129.25, 100.16 130.14 M132.69 97.61 C134.51 120.56, 121.85 130.54, 100.16 130.14 M100.16 130.14 C82.86 129.87, 63.89 130.17, 32.54 130.14 M100.16 130.14 C84.02 130.32, 68.17 129.6, 32.54 130.14 M32.54 130.14 C10.11 130.17, -1.69 118.45, 0 97.61 M32.54 130.14 C10.72 130.07, 0.97 121.3, 0 97.61 M0 97.61 C1.35 78.24, 1.02 55.1, 0 32.54 M0 97.61 C-0.83 84.38, -0.98 70.54, 0 32.54 M0 32.54 C-1.03 10.48, 12.82 1.8, 32.54 0 M0 32.54 C-0.9 10.93, 9.56 1.91, 32.54 0" stroke="#087f5b" stroke-width="1" fill="none"></path></g><g stroke-opacity="0.3" fill-opacity="0.3" stroke-linecap="round" transform="translate(430.4465923564441 152.16534132855895) rotate(0 66.34641878858395 65.07052611957265)"><path d="M4.31 13.02 C4.31 13.02, 4.31 13.02, 4.31 13.02 M4.31 13.02 C4.31 13.02, 4.31 13.02, 4.31 13.02 M1.42 22.44 C7.5 15.18, 10.11 12.98, 18.48 2.81 M1.42 22.44 C5.91 16.95, 11.2 10.37, 18.48 2.81 M0.5 29.59 C5.33 21.71, 12.13 16.05, 25.43 0.91 M0.5 29.59 C9.5 19.39, 17.31 11.23, 25.43 0.91 M0.24 35.99 C8.34 27.41, 16.09 14.77, 31.08 0.51 M0.24 35.99 C12.18 24.1, 22.59 10.61, 31.08 0.51 M0.64 41.63 C12.03 30.33, 23.59 17.14, 36.72 0.12 M0.64 41.63 C13.02 26.53, 26.2 12.53, 36.72 0.12 M0.37 48.03 C15.47 28.19, 32.93 11.14, 41.71 0.48 M0.37 48.03 C10.67 38.19, 18.48 26.84, 41.71 0.48 M0.11 54.42 C15.55 37.62, 31.62 19.88, 47.35 0.08 M0.11 54.42 C15.76 36.93, 31.34 18.52, 47.35 0.08 M0.51 60.07 C17.38 42.37, 32.56 20.09, 52.34 0.45 M0.51 60.07 C14.43 43.62, 26.49 29.06, 52.34 0.45 M0.25 66.46 C15.1 48.35, 28.07 36.67, 57.98 0.05 M0.25 66.46 C19.56 42.85, 38.81 21.05, 57.98 0.05 M0.64 72.11 C21.11 47.14, 43.14 23.95, 62.97 0.41 M0.64 72.11 C17.45 51.4, 35.02 30.95, 62.97 0.41 M0.38 78.51 C21.25 57.61, 39.61 32.08, 67.95 0.77 M0.38 78.51 C15.96 61.99, 30.18 45.62, 67.95 0.77 M0.12 84.9 C16.5 66.05, 36.89 45.23, 73.6 0.38 M0.12 84.9 C27.37 52.92, 54.66 22.28, 73.6 0.38 M0.51 90.55 C31.95 55.94, 60.26 20.41, 78.58 0.74 M0.51 90.55 C27.63 60.08, 53.73 28.62, 78.58 0.74 M0.25 96.94 C33.39 58.36, 64.94 21.09, 84.23 0.34 M0.25 96.94 C24.5 69.89, 47.49 42.3, 84.23 0.34 M0.65 102.59 C33.21 66.16, 65.22 28.91, 89.21 0.7 M0.65 102.59 C23.89 76.16, 45.89 51.25, 89.21 0.7 M1.7 107.48 C39.32 64, 75.09 23.32, 94.86 0.31 M1.7 107.48 C37.16 65.13, 73.22 22.05, 94.86 0.31 M2.75 112.36 C34.73 75.77, 64.75 39.03, 99.84 0.67 M2.75 112.36 C24.19 85.56, 49.18 56.78, 99.84 0.67 M4.45 116.5 C28.33 90.39, 52.99 59.95, 105.49 0.27 M4.45 116.5 C38.99 75.98, 74.41 36.91, 105.49 0.27 M6.82 119.88 C37.51 85.4, 68.61 49.97, 109.82 1.39 M6.82 119.88 C42.19 76.21, 80.03 35.62, 109.82 1.39 M9.84 122.5 C45.64 84.34, 80 43.55, 114.15 2.5 M9.84 122.5 C34.25 92.95, 60.21 63.81, 114.15 2.5 M12.85 125.13 C52.47 79.61, 88.9 34.86, 117.82 4.37 M12.85 125.13 C52.53 78.45, 93.75 30.86, 117.82 4.37 M16.53 126.99 C43.01 100.84, 67.23 71.49, 121.5 6.24 M16.53 126.99 C41.22 100.31, 63.46 74.22, 121.5 6.24 M20.2 128.86 C58.64 85.61, 96.7 43.36, 124.52 8.87 M20.2 128.86 C50.5 94.79, 80.41 59.27, 124.52 8.87 M24.54 129.98 C59.3 89.32, 91.82 52.44, 127.54 11.49 M24.54 129.98 C55.37 96.32, 85.02 61.17, 127.54 11.49 M29.52 130.34 C69.78 88.21, 105.89 42.09, 129.9 14.87 M29.52 130.34 C65.38 88.58, 102.14 44.9, 129.9 14.87 M35.17 129.94 C70.31 88.9, 109.45 44.9, 130.95 19.76 M35.17 129.94 C64.25 95.8, 94.18 62.44, 130.95 19.76 M40.15 130.3 C59.84 106.18, 78.86 83.75, 132 24.65 M40.15 130.3 C64.87 100.45, 89.87 72.67, 132 24.65 M45.14 130.66 C80.58 91.53, 114.36 50.76, 132.4 30.29 M45.14 130.66 C79.77 92.38, 113.16 53.88, 132.4 30.29 M50.78 130.27 C80.97 96.35, 112.66 60.7, 132.79 35.93 M50.78 130.27 C69.99 108.04, 86.88 88.8, 132.79 35.93 M55.77 130.63 C82.41 100.68, 106.44 73.59, 132.53 42.33 M55.77 130.63 C76.99 107.68, 96.59 82.83, 132.53 42.33 M61.41 130.24 C78.91 109.1, 95.98 91.81, 132.92 47.97 M61.41 130.24 C88.5 99.9, 116.1 69.25, 132.92 47.97 M66.4 130.6 C87.39 103.21, 110.49 80.33, 132.66 54.37 M66.4 130.6 C92.72 102.33, 118.08 72.29, 132.66 54.37 M72.04 130.2 C90.3 108.81, 110.11 86.43, 132.4 60.77 M72.04 130.2 C86.98 112.44, 101.61 96.64, 132.4 60.77 M77.03 130.56 C96.77 104.14, 119.89 80.09, 132.79 66.41 M77.03 130.56 C88.48 117.55, 98.1 104.31, 132.79 66.41 M82.02 130.92 C100.13 108.82, 119.23 88.71, 132.53 72.81 M82.02 130.92 C97.05 113.09, 112.41 96.25, 132.53 72.81 M87.66 130.53 C100.1 117.1, 110.41 105.64, 132.27 79.21 M87.66 130.53 C97.81 118.48, 108.04 107.49, 132.27 79.21 M92.65 130.89 C107.12 116.42, 118.86 101.39, 132.67 84.85 M92.65 130.89 C108 114.07, 123.67 96.73, 132.67 84.85 M98.29 130.49 C108.42 120.46, 116.59 108.53, 132.4 91.25 M98.29 130.49 C107.32 120.85, 115.97 110.53, 132.4 91.25 M103.93 130.1 C112.12 121.69, 122.58 111.93, 132.14 97.65 M103.93 130.1 C111.16 122.56, 118 115.31, 132.14 97.65 M109.58 129.7 C116.18 123.24, 120.12 115.77, 132.54 103.29 M109.58 129.7 C115.37 121.27, 123.67 114.77, 132.54 103.29 M117.19 127.04 C120.16 122.3, 125 120.59, 130.96 111.2 M117.19 127.04 C119.77 122.93, 122.83 120.48, 130.96 111.2" stroke="#12b886" stroke-width="0.5" fill="none"></path><path d="M32.54 0 C57.9 -2.41, 85.15 0.98, 100.16 0 M32.54 0 C51.67 0.69, 73.48 0.74, 100.16 0 M100.16 0 C121.87 1.09, 133.79 12.27, 132.69 32.54 M100.16 0 C121.17 -0.67, 131.57 11.31, 132.69 32.54 M132.69 32.54 C130.7 50.91, 132.94 65.26, 132.69 97.61 M132.69 32.54 C131.5 54.14, 132.93 73.8, 132.69 97.61 M132.69 97.61 C130.7 118.41, 123.43 131.24, 100.16 130.14 M132.69 97.61 C132.7 119.7, 121.35 131.47, 100.16 130.14 M100.16 130.14 C86.71 130.81, 69.09 130.35, 32.54 130.14 M100.16 130.14 C74.96 129.01, 50.78 129.99, 32.54 130.14 M32.54 130.14 C9.16 129.29, -0.11 119.23, 0 97.61 M32.54 130.14 C11.82 132.14, 0.65 118.07, 0 97.61 M0 97.61 C0.35 81.89, -2.27 67.7, 0 32.54 M0 97.61 C-0.21 75.01, -0.39 53.6, 0 32.54 M0 32.54 C1.98 12.65, 10.06 0.08, 32.54 0 M0 32.54 C-1.29 12.75, 11.25 -2.16, 32.54 0" stroke="#087f5b" stroke-width="1" fill="none"></path></g><g transform="translate(472.3084511815288 205.13265535860364) rotate(0 33.384071350097656 20)"><text x="33.384071350097656" y="0" font-family="Virgil, Segoe UI Emoji" font-size="16px" fill="#000000" text-anchor="middle" style="white-space: pre;" direction="ltr" dominant-baseline="text-before-edge">Frontend</text><text x="33.384071350097656" y="20" font-family="Virgil, Segoe UI Emoji" font-size="16px" fill="#000000" text-anchor="middle" style="white-space: pre;" direction="ltr" dominant-baseline="text-before-edge">Service</text></g><g stroke-linecap="round"><g stroke-opacity="0.5" fill-opacity="0.5" transform="translate(849.9296762134397 177.38206338720545) rotate(0 45.12240186527447 49.00519178549851)" fill-rule="evenodd"><path d="M0 0 C0 0, 0 0, 0 0 M0 0 C0 0, 0 0, 0 0 M-0.26 6.4 C1.72 2.59, 5.61 -2.06, 9.58 -4.92 M-0.26 6.4 C3.72 2.05, 7.54 -2.11, 9.58 -4.92 M0.13 12.04 C6.19 8.13, 8.11 3.64, 15.88 -6.07 M0.13 12.04 C5.55 5.81, 12.98 -1.11, 15.88 -6.07 M-0.13 18.44 C7.34 12.38, 9.05 4.99, 22.18 -7.22 M-0.13 18.44 C6.42 9.23, 15.55 2.13, 22.18 -7.22 M-0.39 24.84 C7.56 13.22, 16.96 2.2, 27.82 -7.62 M-0.39 24.84 C7.92 15.33, 16.01 6.35, 27.82 -7.62 M0 30.48 C14.2 15.04, 25.21 1.36, 33.46 -8.01 M0 30.48 C7.22 21.84, 14.88 14.16, 33.46 -8.01 M-0.26 36.88 C11.29 25.22, 20.74 8.53, 39.11 -8.41 M-0.26 36.88 C11.24 22.78, 22.99 9.43, 39.11 -8.41 M0.14 42.52 C16.78 24.18, 34.75 4.35, 44.75 -8.8 M0.14 42.52 C14 25.8, 27.61 11.98, 44.75 -8.8 M-0.12 48.92 C14.65 29.93, 31.49 9.22, 49.74 -8.44 M-0.12 48.92 C14.2 33.35, 28.43 15.78, 49.74 -8.44 M-0.38 55.32 C9.39 42.77, 21.97 28.04, 54.72 -8.08 M-0.38 55.32 C20.46 33.05, 40.08 9.6, 54.72 -8.08 M0.01 60.96 C21.56 36.48, 46.58 8.69, 59.71 -7.72 M0.01 60.96 C16.35 41.9, 33.82 21.83, 59.71 -7.72 M-0.25 67.36 C12.38 50.35, 29.75 35.7, 64.7 -7.36 M-0.25 67.36 C16.8 47.1, 34.85 27.33, 64.7 -7.36 M-0.51 73.75 C24.11 46.74, 47.99 16.41, 69.69 -7 M-0.51 73.75 C22.97 48.01, 45.4 23.43, 69.69 -7 M-0.12 79.4 C25.6 51.8, 47.99 26.63, 74.67 -6.64 M-0.12 79.4 C28.5 46.01, 57.18 13.76, 74.67 -6.64 M-0.38 85.8 C21.19 61.77, 37.21 39.41, 79 -5.52 M-0.38 85.8 C19.26 64.9, 36.82 42.85, 79 -5.52 M0.01 91.44 C23.59 63.45, 47.88 35.3, 83.33 -4.41 M0.01 91.44 C30.1 57.72, 58.59 23.02, 83.33 -4.41 M-0.25 97.84 C25.36 67.91, 51.41 37.52, 87.01 -2.54 M-0.25 97.84 C26.94 69.42, 51.05 38.78, 87.01 -2.54 M2.12 101.22 C20.77 78.98, 38.5 57.06, 90.68 -0.67 M2.12 101.22 C35.99 62.97, 68.84 24.7, 90.68 -0.67 M6.45 102.33 C26.17 79.63, 44.26 56.99, 91.08 4.97 M6.45 102.33 C33.01 72, 57.7 41.17, 91.08 4.97 M10.78 103.44 C40.46 70.02, 69.98 37.8, 90.82 11.37 M10.78 103.44 C32.86 78.38, 54.95 53.12, 90.82 11.37 M15.11 104.56 C39.94 73.36, 66.7 44.26, 90.56 17.77 M15.11 104.56 C38.95 78.42, 62.9 50.37, 90.56 17.77 M18.78 106.43 C37.74 83.52, 61.48 57.93, 90.95 23.41 M18.78 106.43 C34.89 88.31, 48.99 71.67, 90.95 23.41 M23.77 106.79 C45.95 84.2, 66.76 58.08, 90.69 29.81 M23.77 106.79 C46.86 82.7, 67.36 56.92, 90.69 29.81 M28.76 107.15 C42.13 89.9, 55.93 76.35, 90.43 36.21 M28.76 107.15 C43.26 89.92, 59.36 73.82, 90.43 36.21 M34.4 106.75 C53.14 85.35, 73.48 65.76, 90.82 41.85 M34.4 106.75 C55.73 81.74, 77.44 56.1, 90.82 41.85 M39.39 107.11 C58.28 83.7, 78.26 61.6, 90.56 48.25 M39.39 107.11 C56.3 90.03, 70.42 70.85, 90.56 48.25 M44.37 107.48 C62.04 88.28, 75.73 71.29, 90.95 53.89 M44.37 107.48 C58.32 90.99, 73.59 74.73, 90.95 53.89 M50.02 107.08 C63.62 93.51, 74.04 78.81, 90.69 60.29 M50.02 107.08 C61.02 95.32, 71.49 82, 90.69 60.29 M55.66 106.69 C66.67 96.33, 76.05 82.63, 90.43 66.69 M55.66 106.69 C65.52 93.69, 77.33 81.44, 90.43 66.69 M61.3 106.29 C73.94 94.29, 83.21 80.5, 90.83 72.33 M61.3 106.29 C67.5 98.09, 75.34 89.48, 90.83 72.33 M66.95 105.9 C73.65 101.21, 76.98 95.32, 90.57 78.73 M66.95 105.9 C75.97 94.21, 86.28 83.61, 90.57 78.73 M72.59 105.5 C78.33 98.58, 83.23 92.5, 90.3 85.12 M72.59 105.5 C76.44 100.21, 82.46 95.1, 90.3 85.12 M78.23 105.11 C82.49 101.75, 85.75 96.56, 90.7 90.77 M78.23 105.11 C82.22 99.48, 88.61 93.12, 90.7 90.77 M85.84 102.45 C86.9 101.05, 88.39 98.65, 90.44 97.17 M85.84 102.45 C87.44 101.02, 88.72 99.02, 90.44 97.17" stroke="#15aabf" stroke-width="0.5" fill="none"></path><path d="M0.74 0.77 C0.69 15.48, -0.08 71.91, -0.07 88.02 C-0.06 104.13, 0.22 94.95, 0.81 97.43 C1.4 99.91, 0.03 101.35, 3.46 102.89 C6.88 104.42, 14.09 105.78, 21.39 106.63 C28.69 107.48, 38.44 108.16, 47.24 108.01 C56.03 107.86, 67.41 106.92, 74.13 105.73 C80.86 104.54, 84.95 102.24, 87.58 100.85 C90.2 99.46, 89.6 99.2, 89.87 97.39 C90.13 95.58, 89.1 105.14, 89.15 89.99 C89.21 74.85, 89.97 21.39, 90.18 6.53 C90.39 -8.33, 91.6 2.64, 90.41 0.84 C89.21 -0.96, 86.25 -3.1, 83.01 -4.27 C79.77 -5.44, 77.62 -5.29, 70.96 -6.16 C64.29 -7.02, 51.19 -9.03, 43.03 -9.47 C34.86 -9.92, 28.28 -9.58, 21.95 -8.82 C15.62 -8.06, 8.6 -6.23, 5.04 -4.93 C1.47 -3.62, 1.45 -1.76, 0.56 -1 C-0.34 -0.25, -0.35 -0.71, -0.33 -0.4 M-0.33 0.12 C-0.6 15.06, -1.34 73.13, -1.21 89.51 C-1.08 105.88, -0.25 95.92, 0.47 98.36 C1.18 100.81, -0.22 102.72, 3.07 104.2 C6.37 105.68, 12.7 106.74, 20.22 107.26 C27.74 107.79, 39.1 107.79, 48.19 107.33 C57.27 106.88, 68.39 105.68, 74.74 104.52 C81.09 103.35, 83.46 101.79, 86.3 100.37 C89.13 98.94, 91.27 97.73, 91.78 95.98 C92.28 94.23, 89.53 104.69, 89.32 89.87 C89.12 75.05, 90.54 21.86, 90.55 7.06 C90.57 -7.75, 90.71 3.03, 89.42 1.04 C88.13 -0.95, 86.08 -3.74, 82.83 -4.88 C79.58 -6.02, 76.57 -4.93, 69.92 -5.81 C63.28 -6.68, 51.37 -9.76, 42.98 -10.13 C34.6 -10.49, 26.04 -8.87, 19.61 -7.98 C13.17 -7.09, 7.73 -5.92, 4.4 -4.78 C1.06 -3.64, 0.03 -1.88, -0.41 -1.14 C-0.85 -0.4, 1.45 -0.46, 1.78 -0.35" stroke="#0b7285" stroke-width="1" fill="none"></path></g></g><mask></mask><g stroke-opacity="0.5" fill-opacity="0.5" stroke-linecap="round" transform="translate(849.3504518573086 167.09106420971915) rotate(0 44.88151337668398 9.07694842294498)"><path d="M0.15 10.73 C0.15 10.73, 0.15 10.73, 0.15 10.73 M0.15 10.73 C0.15 10.73, 0.15 10.73, 0.15 10.73 M4.48 11.84 C6.66 9.27, 9.86 6.4, 11.04 4.3 M4.48 11.84 C6.31 10.06, 7.42 8.1, 11.04 4.3 M8.15 13.71 C10.52 9.64, 14.81 7.1, 17.34 3.15 M8.15 13.71 C10.98 10.03, 14.06 6.45, 17.34 3.15 M12.49 14.83 C15.74 10.9, 18.86 7.59, 23.64 2 M12.49 14.83 C17.06 9.77, 20.95 5.08, 23.64 2 M16.82 15.94 C19.39 12.21, 22.66 9.58, 29.94 0.85 M16.82 15.94 C20.66 11.94, 23.98 6.67, 29.94 0.85 M21.8 16.3 C25.49 11.78, 29.1 7.8, 34.93 1.21 M21.8 16.3 C26.63 10.87, 31.84 5.09, 34.93 1.21 M26.79 16.66 C31 10.82, 35.22 7.81, 40.57 0.82 M26.79 16.66 C30.97 11.45, 35.61 5.78, 40.57 0.82 M31.78 17.02 C35.35 13.25, 39.1 7.73, 45.56 1.18 M31.78 17.02 C34.2 13.94, 37.35 10.26, 45.56 1.18 M36.76 17.38 C42.99 11.99, 47.73 5.66, 51.2 0.78 M36.76 17.38 C42.03 11.48, 48.1 4.75, 51.2 0.78 M41.75 17.74 C44.96 13.36, 49.84 7.78, 56.19 1.14 M41.75 17.74 C44.47 13.99, 48.43 10.77, 56.19 1.14 M47.4 17.35 C50.53 13.43, 54.83 9.47, 61.17 1.5 M47.4 17.35 C52.37 12.13, 57.06 6.03, 61.17 1.5 M52.38 17.71 C57.45 12.06, 62.04 8, 66.16 1.86 M52.38 17.71 C57.19 12.6, 61.26 8.07, 66.16 1.86 M58.03 17.32 C62.52 10.79, 67.79 5.47, 71.15 2.22 M58.03 17.32 C61.68 13.26, 64.03 9.58, 71.15 2.22 M63.01 17.68 C66.99 14.68, 68.4 11.21, 76.13 2.58 M63.01 17.68 C66.68 13.17, 70.48 8.75, 76.13 2.58 M69.31 16.53 C73.96 12.7, 76.62 8.02, 80.46 3.7 M69.31 16.53 C72.56 12.69, 75.93 8.72, 80.46 3.7 M76.27 14.62 C79.15 12.45, 80.38 9.3, 84.14 5.57 M76.27 14.62 C77.84 12.62, 79.35 10.65, 84.14 5.57 M82.57 13.47 C84.82 11.41, 86.68 9.08, 87.81 7.43 M82.57 13.47 C83.8 12.02, 84.88 10.59, 87.81 7.43" stroke="#15aabf" stroke-width="0.5" fill="none"></path><path d="M52.47 0.37 C60.9 0.55, 70.92 1.13, 77.1 2.35 C83.28 3.58, 88.28 5.92, 89.56 7.71 C90.85 9.5, 88.92 11.5, 84.79 13.07 C80.65 14.64, 72.67 16.39, 64.78 17.14 C56.88 17.89, 46.04 17.83, 37.43 17.55 C28.82 17.28, 19.33 16.61, 13.12 15.48 C6.9 14.34, 1.39 12.57, 0.13 10.75 C-1.13 8.93, 1.42 6.23, 5.58 4.56 C9.73 2.88, 16.96 1.47, 25.05 0.69 C33.13 -0.09, 49.14 -0.11, 54.08 -0.12 C59.02 -0.13, 54.98 0.35, 54.71 0.63 M33.99 0.01 C41.97 -0.32, 54.08 0.49, 62.3 1.21 C70.51 1.93, 78.78 2.95, 83.28 4.33 C87.78 5.71, 89.95 7.62, 89.31 9.51 C88.67 11.41, 85.01 14.35, 79.42 15.68 C73.83 17.01, 64.31 17.21, 55.78 17.5 C47.25 17.78, 36.47 17.86, 28.24 17.37 C20.01 16.88, 11.09 15.98, 6.42 14.55 C1.75 13.13, -0.51 10.64, 0.22 8.81 C0.95 6.98, 5.15 5.07, 10.8 3.57 C16.46 2.08, 30.33 0.37, 34.15 -0.14 C37.96 -0.66, 33.58 0.31, 33.69 0.47" stroke="#0b7285" stroke-width="1" fill="none"></path></g><g transform="translate(848.438697287402 291.2500491546953) rotate(0 49.43994140625 12.5)"><text x="0" y="0" font-family="Virgil, Segoe UI Emoji" font-size="20px" fill="#000000" text-anchor="start" style="white-space: pre;" direction="ltr" dominant-baseline="text-before-edge">Database</text></g><g stroke-linecap="round"><g transform="translate(582.8786615818356 464.3259798460259) rotate(0 132.5 -126.73798992301285)"><path d="M0 0 C44.17 -42.25, 220.83 -211.23, 265 -253.48" stroke="#1e1e1e" stroke-width="1.5" fill="none" stroke-dasharray="8 9"></path></g><g transform="translate(582.8786615818356 464.3259798460259) rotate(0 132.5 -126.73798992301285)"><path d="M253.93 -231.06 C257.53 -238.35, 261.13 -245.64, 265 -253.48" stroke="#1e1e1e" stroke-width="1.5" fill="none"></path></g><g transform="translate(582.8786615818356 464.3259798460259) rotate(0 132.5 -126.73798992301285)"><path d="M242.11 -243.42 C249.55 -246.69, 257 -249.96, 265 -253.48" stroke="#1e1e1e" stroke-width="1.5" fill="none"></path></g></g><mask></mask><g mask="url(#mask-9GLPX2JSQwFxyTqoLKQ-E)" stroke-linecap="round"><g transform="translate(503.00389880564177 297.4284355891323) rotate(0 -2.0553317633674624 78.46674658580187)"><path d="M0 0 C-0.69 26.16, -3.43 130.78, -4.11 156.93" stroke="#1e1e1e" stroke-width="1.5" fill="none" stroke-dasharray="8 9"></path></g><g transform="translate(503.00389880564177 297.4284355891323) rotate(0 -2.0553317633674624 78.46674658580187)"><path d="M-12.04 133.23 C-9.3 141.44, -6.55 149.65, -4.11 156.93" stroke="#1e1e1e" stroke-width="1.5" fill="none"></path></g><g transform="translate(503.00389880564177 297.4284355891323) rotate(0 -2.0553317633674624 78.46674658580187)"><path d="M5.05 133.67 C1.88 141.73, -1.29 149.78, -4.11 156.93" stroke="#1e1e1e" stroke-width="1.5" fill="none"></path></g></g><mask id="mask-9GLPX2JSQwFxyTqoLKQ-E"><rect x="0" y="0" fill="#fff" width="607.1145623323766" height="554.361928760736"></rect><rect x="413.05794204227436" y="363.8951821749341" fill="#000" width="175.78125" height="24" opacity="1"></rect></mask><g transform="translate(413.05794204227436 363.8951821749341) rotate(0 87.890625 12)"><text x="87.890625" y="0" font-family="Cascadia, Segoe UI Emoji" font-size="20px" fill="#1971c2" text-anchor="middle" style="white-space: pre;" direction="ltr" dominant-baseline="text-before-edge">Commands/Querys</text></g><g stroke-opacity="0" fill-opacity="0" stroke-linecap="round" transform="translate(10 221.2213384181643) rotate(0 58.378661581835615 58.378661581835615)"><path d="M7.78 29.29 C7.78 29.29, 7.78 29.29, 7.78 29.29 M7.78 29.29 C7.78 29.29, 7.78 29.29, 7.78 29.29 M5.55 37.95 C12.47 29.35, 16.79 23.33, 31.79 7.76 M5.55 37.95 C12.3 30.32, 18.08 24.29, 31.79 7.76 M3.32 46.61 C12.97 37.64, 19.46 28.44, 38.74 5.85 M3.32 46.61 C10.42 38.45, 17.35 30.78, 38.74 5.85 M1.09 55.27 C10.5 43.95, 24.65 30.89, 46.36 3.2 M1.09 55.27 C14.27 39.07, 27.82 24.91, 46.36 3.2 M1.48 60.91 C14.04 45.67, 31.21 26.14, 52.65 2.05 M1.48 60.91 C19.77 39.91, 38.33 17.01, 52.65 2.05 M2.53 65.8 C21.61 45.06, 40.39 23.19, 57.64 2.41 M2.53 65.8 C20.79 43.73, 40.13 22.61, 57.64 2.41 M3.58 70.69 C27.41 42.99, 47.66 17.63, 62.63 2.77 M3.58 70.69 C20.66 49.08, 38.41 28.26, 62.63 2.77 M4.63 75.58 C20.75 56.34, 39.12 37.09, 66.96 3.88 M4.63 75.58 C25.39 50.45, 47.82 26.6, 66.96 3.88 M5.68 80.47 C27.5 58.42, 46.23 34.17, 71.95 4.24 M5.68 80.47 C20.22 65.6, 33.65 50.18, 71.95 4.24 M7.39 84.6 C32.24 55.3, 56.71 26.95, 76.93 4.6 M7.39 84.6 C32.2 57.42, 54.5 29.43, 76.93 4.6 M10.41 87.23 C29.73 64.38, 51.22 40.52, 81.92 4.96 M10.41 87.23 C37.86 54.23, 66.47 21.26, 81.92 4.96 M12.77 90.6 C42.1 61.23, 65.93 27.49, 84.94 7.59 M12.77 90.6 C28.59 72.5, 46.07 54.13, 84.94 7.59 M15.14 93.98 C40.93 66.4, 63.04 36.45, 87.96 10.21 M15.14 93.98 C41.81 63.04, 70.44 31.7, 87.96 10.21 M18.15 96.61 C36.09 78.47, 54.7 57.06, 91.63 12.08 M18.15 96.61 C43.03 68.07, 69.99 38.38, 91.63 12.08 M20.52 99.99 C39.7 74.97, 60.94 52.63, 94.65 14.7 M20.52 99.99 C36.04 82.8, 50.43 65.13, 94.65 14.7 M22.88 103.37 C43.26 78.46, 65.8 53.17, 98.33 16.57 M22.88 103.37 C45.11 77.26, 67.32 52.4, 98.33 16.57 M25.9 105.99 C47.98 79.03, 66.04 56.64, 101.35 19.2 M25.9 105.99 C46.72 82.73, 66.57 58.6, 101.35 19.2 M29.57 107.86 C47.26 90.14, 64.88 69.3, 104.36 21.82 M29.57 107.86 C54.05 80, 79.66 51.32, 104.36 21.82 M33.91 108.97 C49.71 90.15, 64.06 75.55, 106.07 25.96 M33.91 108.97 C56.75 80.96, 81.66 53.5, 106.07 25.96 M37.58 110.84 C52.93 91.95, 70.81 72.01, 107.78 30.09 M37.58 110.84 C63.82 81.37, 89.14 53.48, 107.78 30.09 M41.91 111.96 C69.11 82.87, 92.68 54.06, 109.49 34.22 M41.91 111.96 C62.55 89.96, 80.75 66.83, 109.49 34.22 M45.59 113.83 C70.72 84.7, 97.68 52.62, 111.85 37.6 M45.59 113.83 C67.97 87.71, 89.01 61.98, 111.85 37.6 M49.26 115.7 C69.39 95.24, 87.13 75.38, 113.55 41.74 M49.26 115.7 C63.4 100.94, 76.25 86.04, 113.55 41.74 M54.9 115.3 C69.01 99.27, 82.17 82.07, 115.26 45.87 M54.9 115.3 C69.96 95.91, 87.17 77.42, 115.26 45.87 M60.55 114.91 C73.64 98.98, 84.43 85.47, 115.66 51.51 M60.55 114.91 C77.45 95.96, 93.92 78.12, 115.66 51.51 M66.19 114.51 C78.69 98.42, 94.66 82.22, 115.39 57.91 M66.19 114.51 C77.92 101.99, 88.36 88.89, 115.39 57.91 M71.83 114.12 C83.93 99.47, 94.44 85.1, 115.79 63.55 M71.83 114.12 C85.3 97.89, 99.29 81.44, 115.79 63.55 M78.13 112.97 C86.12 101.12, 94.52 92.89, 115.53 69.95 M78.13 112.97 C89.99 98.75, 103.81 83.55, 115.53 69.95 M90.99 104.27 C98.49 95.21, 106.19 86.79, 111.99 80.12 M90.99 104.27 C95.13 99.25, 100.22 93.53, 111.99 80.12 M24.82 105.58 C24.82 105.58, 24.82 105.58, 24.82 105.58 M24.82 105.58 C24.82 105.58, 24.82 105.58, 24.82 105.58 M35.75 109.78 C29.47 106.84, 24.7 98.95, 10.09 87.47 M35.75 109.78 C30.34 104.07, 24.42 99.74, 10.09 87.47 M47.43 114.63 C29 98.82, 14.46 86.16, 5.16 77.89 M47.43 114.63 C33.2 102.44, 20.17 91, 5.16 77.89 M53.83 114.89 C33.86 97.4, 15.83 80.4, 4.01 71.59 M53.83 114.89 C39.77 103.57, 25.98 91.26, 4.01 71.59 M59.47 114.5 C44.66 98.69, 28.47 86.66, 2.87 65.3 M59.47 114.5 C44.69 102.48, 31.01 89.38, 2.87 65.3 M65.11 114.11 C41.03 92.54, 14.15 70.75, 0.96 58.34 M65.11 114.11 C48.13 99.82, 31.05 85.3, 0.96 58.34 M70.75 113.71 C44.9 92.8, 15.36 69.14, 2.08 54.01 M70.75 113.71 C55.86 101.61, 42.47 89.36, 2.08 54.01 M75.64 112.66 C58.75 97.36, 38.89 82.47, 2.44 49.02 M75.64 112.66 C49.11 88.39, 20.95 66.69, 2.44 49.02 M79.78 110.95 C52.47 91.42, 28.76 66.27, 3.55 44.69 M79.78 110.95 C51.36 86.75, 23.65 63.03, 3.55 44.69 M83.91 109.25 C57.33 88.15, 30.8 63.33, 4.67 40.36 M83.91 109.25 C62.36 89.14, 38.63 69.67, 4.67 40.36 M87.29 106.88 C68.98 92.28, 53.68 75.09, 5.78 36.03 M87.29 106.88 C66.42 89.1, 44.86 69.39, 5.78 36.03 M90.67 104.52 C60.57 77.85, 31.53 54.18, 6.9 31.7 M90.67 104.52 C59.64 77.48, 27.02 50.62, 6.9 31.7 M94.05 102.16 C68.1 78.64, 40.56 53.72, 8.76 28.02 M94.05 102.16 C72.74 84.43, 50.85 63.77, 8.76 28.02 M97.43 99.8 C78.33 81.93, 59.73 63.29, 11.39 25 M97.43 99.8 C70.82 75.11, 41.55 51.32, 11.39 25 M100.8 97.43 C74.01 72.99, 46.5 52.55, 14.01 21.99 M100.8 97.43 C74.93 74.77, 50.48 54.94, 14.01 21.99 M102.67 93.76 C70.26 67.9, 41.71 38.11, 16.64 18.97 M102.67 93.76 C76.48 71.48, 52.74 49.04, 16.64 18.97 M105.3 90.74 C77.83 64.53, 47.69 42.84, 19.26 15.95 M105.3 90.74 C79.67 68.58, 54.73 48.08, 19.26 15.95 M107.17 87.06 C72.91 57.09, 42.34 29.23, 21.89 12.93 M107.17 87.06 C77.16 60.81, 45.74 35.43, 21.89 12.93 M109.79 84.05 C79.78 59.63, 51.77 32.73, 25.27 10.57 M109.79 84.05 C92.23 69.69, 73.98 52.5, 25.27 10.57 M111.66 80.37 C79.07 52.04, 46.54 25.24, 28.64 8.2 M111.66 80.37 C89.2 60.83, 67.15 41.85, 28.64 8.2 M113.53 76.7 C92.71 57.95, 73.46 41.49, 32.78 6.5 M113.53 76.7 C81.51 48.07, 48.86 20.59, 32.78 6.5 M115.4 73.02 C91.03 51, 63.07 31.21, 37.67 5.45 M115.4 73.02 C93.19 54.46, 70.82 35.34, 37.67 5.45 M115.76 68.03 C94.45 51.03, 73.16 32.8, 41.8 3.74 M115.76 68.03 C87.66 43.9, 61.19 20.05, 41.8 3.74 M115.37 62.39 C87.38 38.29, 63.03 14.9, 46.69 2.69 M115.37 62.39 C89.51 40.84, 66.18 17.45, 46.69 2.69 M115.73 57.4 C99.16 42.31, 85.45 31.42, 50.82 0.98 M115.73 57.4 C99.06 42.09, 81.6 28.82, 50.82 0.98 M115.33 51.76 C102.98 41.66, 90.31 30.97, 57.97 1.9 M115.33 51.76 C93.55 32.26, 73.89 14.4, 57.97 1.9 M115.69 46.77 C100.92 34, 85.89 21.2, 65.13 2.82 M115.69 46.77 C95.15 28.67, 76.63 11.55, 65.13 2.82 M110.77 37.19 C98.02 24.86, 83.99 14.81, 72.28 3.73 M110.77 37.19 C100.06 29.26, 91.37 21.33, 72.28 3.73 M106.6 28.27 C96.55 18.67, 84.7 9.91, 78.68 4 M106.6 28.27 C97.34 21.39, 89.41 13.05, 78.68 4" stroke="#a5d8ff" stroke-width="0.5" fill="none"></path><path d="M80.78 4.7 C89.18 7.15, 97.31 13.4, 103.07 20.37 C108.83 27.33, 113.31 37.47, 115.33 46.49 C117.35 55.51, 117.69 65.93, 115.18 74.5 C112.67 83.07, 106.42 91.54, 100.25 97.91 C94.07 104.28, 86.55 109.76, 78.16 112.69 C69.77 115.63, 58.82 116.72, 49.91 115.52 C41 114.32, 31.94 110.87, 24.7 105.48 C17.47 100.08, 10.49 91.23, 6.51 83.16 C2.53 75.09, 0.61 66.02, 0.82 57.05 C1.03 48.07, 3.59 37.27, 7.76 29.31 C11.92 21.35, 18.38 14.01, 25.79 9.31 C33.21 4.62, 42.47 1.81, 52.25 1.16 C62.02 0.51, 78.56 4.15, 84.43 5.41 C90.29 6.68, 87.69 7.9, 87.43 8.75 M69.73 0.66 C78.35 1.21, 86.94 6.29, 94.08 11.76 C101.22 17.23, 108.81 25.3, 112.55 33.47 C116.3 41.64, 117.44 51.76, 116.56 60.76 C115.68 69.76, 111.98 79.63, 107.27 87.49 C102.56 95.36, 95.56 103.31, 88.31 107.96 C81.05 112.62, 72.55 114.71, 63.74 115.4 C54.93 116.09, 44.05 115.51, 35.46 112.11 C26.86 108.71, 18.01 101.94, 12.16 94.99 C6.31 88.05, 2.12 79.36, 0.36 70.44 C-1.41 61.52, -1.06 50.12, 1.58 41.47 C4.21 32.82, 9.47 24.93, 16.18 18.56 C22.89 12.18, 32.92 6, 41.83 3.21 C50.74 0.42, 65.43 1.86, 69.63 1.82 C73.83 1.77, 67.2 2.19, 67.02 2.93" stroke="#1971c2" stroke-width="1" fill="none"></path></g><g stroke-linecap="round"><g transform="translate(39.68614392722293 301.0616881333661) rotate(0 27.17391304347825 -24.197589173934944)" fill-rule="evenodd"><path d="M14.91 -42.69 C14.91 -42.69, 14.91 -42.69, 14.91 -42.69 M14.91 -42.69 C14.91 -42.69, 14.91 -42.69, 14.91 -42.69 M4.15 -24.21 C8.59 -28.88, 13.71 -36.36, 24.49 -47.61 M4.15 -24.21 C10.25 -31.47, 16.42 -37.96, 24.49 -47.61 M3.24 -17.06 C8.77 -26.18, 16.9 -33.94, 30.13 -48 M3.24 -17.06 C13.95 -29.42, 24.18 -41.32, 30.13 -48 M1.66 -9.15 C12.9 -21.19, 27.09 -35.49, 33.81 -46.14 M1.66 -9.15 C14.51 -22.45, 26.12 -37.48, 33.81 -46.14 M0.75 -2 C12.55 -17.84, 24.2 -32.5, 36.83 -43.51 M0.75 -2 C12.99 -16.99, 26.9 -32.01, 36.83 -43.51 M4.42 -0.13 C13.59 -11.46, 20.23 -20.13, 40.5 -41.64 M4.42 -0.13 C13.33 -10.34, 21.33 -18.92, 40.5 -41.64 M9.41 0.23 C18.76 -8.4, 24.95 -17.25, 43.52 -39.02 M9.41 0.23 C16.26 -7.64, 22.92 -15.01, 43.52 -39.02 M15.05 -0.17 C20.83 -7.32, 31.33 -16.16, 45.23 -34.88 M15.05 -0.17 C23.65 -11.17, 32.67 -20.12, 45.23 -34.88 M20.04 0.19 C25.9 -7.38, 36.34 -19.16, 47.59 -31.5 M20.04 0.19 C29.86 -10.87, 39.71 -23.74, 47.59 -31.5 M25.68 -0.2 C34.32 -9.1, 42.71 -19.02, 49.95 -28.13 M25.68 -0.2 C33.39 -9.99, 42.12 -18.91, 49.95 -28.13 M30.67 0.16 C39.83 -10.84, 45.46 -19.38, 51.66 -23.99 M30.67 0.16 C36.49 -7.79, 42.55 -15.16, 51.66 -23.99 M36.31 -0.24 C40.77 -5.78, 47.46 -11.59, 54.02 -20.61 M36.31 -0.24 C41.71 -7.56, 48.77 -13.74, 54.02 -20.61 M41.3 0.12 C47.56 -4.11, 50.81 -10.55, 55.73 -16.48 M41.3 0.12 C44.77 -2.42, 47.74 -5.79, 55.73 -16.48 M47.6 -1.03 C50.4 -5.47, 53.29 -8.93, 56.78 -11.59 M47.6 -1.03 C51.17 -4.28, 53.32 -8.38, 56.78 -11.59 M0 0 C0 0, 0 0, 0 0 M0 0 C0 0, 0 0, 0 0 M6.4 0.26 C5.52 -1.35, 3.05 -2.61, 0.36 -4.99 M6.4 0.26 C4.92 -1.03, 3.36 -2.61, 0.36 -4.99 M12.04 -0.13 C8.64 -3.52, 3.69 -5.2, 1.47 -9.32 M12.04 -0.13 C8.19 -3.22, 4.4 -7.78, 1.47 -9.32 M18.44 0.13 C15.91 -1.64, 10.29 -5.88, 1.84 -14.3 M18.44 0.13 C14.49 -2.92, 9.53 -7.85, 1.84 -14.3 M24.08 -0.27 C16.11 -7.03, 10.72 -14.17, 2.95 -18.64 M24.08 -0.27 C17.7 -6.18, 10.86 -11.86, 2.95 -18.64 M30.48 0 C19.75 -7.08, 8.59 -17.41, 3.31 -23.62 M30.48 0 C20.08 -8.2, 11.18 -17.07, 3.31 -23.62 M36.12 -0.4 C22.18 -12.51, 12.35 -21.67, 4.42 -27.95 M36.12 -0.4 C26.56 -8.45, 16.1 -17.65, 4.42 -27.95 M42.52 -0.14 C35.58 -8.18, 25.91 -15.13, 6.29 -31.63 M42.52 -0.14 C30.51 -10.68, 17.68 -23.49, 6.29 -31.63 M46.65 -1.84 C36.81 -8.35, 31.02 -14.99, 8.16 -35.3 M46.65 -1.84 C35.43 -11.04, 24.45 -21.4, 8.16 -35.3 M51.54 -2.9 C39.99 -12.28, 27.22 -21.73, 10.79 -38.32 M51.54 -2.9 C41.6 -10.68, 33.35 -18.46, 10.79 -38.32 M54.92 -5.26 C40.78 -18.39, 27.2 -30.67, 13.41 -41.34 M54.92 -5.26 C45.39 -13.5, 34.64 -20.93, 13.41 -41.34 M56.79 -8.93 C49.05 -16.83, 38.1 -23.35, 16.79 -43.7 M56.79 -8.93 C41.51 -22.35, 26.42 -35.01, 16.79 -43.7 M55.64 -15.23 C47.68 -20.28, 40.58 -30.53, 20.17 -46.07 M55.64 -15.23 C46.09 -22.82, 36.15 -33, 20.17 -46.07 M53.74 -22.19 C43.37 -31.64, 31.94 -40.75, 24.3 -47.77 M53.74 -22.19 C42.77 -31.82, 32.64 -41.5, 24.3 -47.77 M47.31 -33.08 C40.92 -38.57, 37.26 -41.23, 29.95 -48.17 M47.31 -33.08 C42.85 -35.88, 39.79 -39.93, 29.95 -48.17" stroke="#a5d8ff" stroke-width="0.5" fill="none"></path><path d="M0.93 -0.96 C2.03 -6.3, 1.35 -23.87, 5.61 -31.79 C9.87 -39.7, 19.84 -47.79, 26.48 -48.43 C33.13 -49.08, 40.75 -43.29, 45.5 -35.67 C50.26 -28.05, 62.47 -8.5, 55.01 -2.71 C47.55 3.08, 9.99 -1.49, 0.76 -0.93 M-0.03 1.15 C0.94 -4.6, 0.09 -25.71, 4.42 -33.76 C8.74 -41.81, 19.09 -46.99, 25.93 -47.14 C32.76 -47.28, 40.78 -42.15, 45.44 -34.62 C50.1 -27.1, 61.64 -7.97, 53.88 -1.99 C46.13 3.98, 7.88 0.93, -1.1 1.21" stroke="#1971c2" stroke-width="1" fill="none"></path></g></g><mask></mask><g stroke-linecap="round" transform="translate(53.431907900464125 227.42803549598358) rotate(0 13.913043478260875 12.173913043478308)"><path d="M5.72 2.32 C5.72 2.32, 5.72 2.32, 5.72 2.32 M5.72 2.32 C5.72 2.32, 5.72 2.32, 5.72 2.32 M1.52 13.25 C4.91 8.15, 8.74 4.97, 12.02 1.17 M1.52 13.25 C5.69 8.67, 9.8 3.68, 12.02 1.17 M2.57 18.14 C6.95 11.79, 12.57 5.64, 17.01 1.53 M2.57 18.14 C7.2 12.7, 12.62 6.15, 17.01 1.53 M5.59 20.76 C11 14.62, 16.34 7.7, 21.34 2.65 M5.59 20.76 C11.31 14.13, 17.35 7.11, 21.34 2.65 M8.61 23.39 C14.35 18.4, 19.27 11.66, 24.36 5.27 M8.61 23.39 C12.47 18.36, 17.34 13.8, 24.36 5.27 M13.6 23.75 C18.42 19.4, 21.15 15.04, 26.72 8.65 M13.6 23.75 C19.09 17.59, 23.7 11.98, 26.72 8.65 M20.55 21.84 C22.33 20.05, 23.89 18.18, 26.46 15.05 M20.55 21.84 C22.37 19.67, 24.38 17.78, 26.46 15.05 M8.76 23.46 C8.76 23.46, 8.76 23.46, 8.76 23.46 M8.76 23.46 C8.76 23.46, 8.76 23.46, 8.76 23.46 M15.16 23.72 C10.92 20.96, 6.56 16.9, 1.57 11.91 M15.16 23.72 C10.91 20.22, 7.18 16.52, 1.57 11.91 M19.29 22.01 C14.66 18.19, 8.93 12.44, 1.93 6.92 M19.29 22.01 C16.21 19.25, 12.73 16.3, 1.93 6.92 M23.42 20.31 C18.76 15.87, 14.79 13.34, 4.56 3.91 M23.42 20.31 C19.38 16.19, 14.73 12.88, 4.56 3.91 M26.05 17.29 C19.39 10.77, 12.46 5.81, 7.93 1.54 M26.05 17.29 C20.13 12.02, 14.01 7.38, 7.93 1.54 M27.16 12.96 C24.52 9.65, 19.99 6.77, 12.82 0.49 M27.16 12.96 C23.38 9.66, 19.48 6.01, 12.82 0.49 M25.26 6 C23.76 4.6, 21.92 3.57, 20.73 2.07 M25.26 6 C23.55 4.57, 21.86 2.83, 20.73 2.07" stroke="#a5d8ff" stroke-width="0.5" fill="none"></path><path d="M15.02 0.32 C17.9 0.46, 21.9 2.08, 23.96 3.84 C26.02 5.6, 27.1 8.41, 27.38 10.88 C27.66 13.36, 27.25 16.58, 25.63 18.71 C24 20.83, 20.5 22.87, 17.64 23.62 C14.78 24.37, 11.15 24.33, 8.48 23.21 C5.8 22.09, 2.87 19.23, 1.6 16.9 C0.33 14.56, 0.12 11.69, 0.86 9.2 C1.6 6.71, 3.65 3.49, 6.04 1.96 C8.43 0.43, 13.61 0.2, 15.22 0.02 C16.84 -0.17, 15.72 0.7, 15.74 0.84 M11.18 0.39 C14.06 -0.23, 18.49 0.52, 21.27 1.83 C24.04 3.14, 26.88 5.8, 27.83 8.25 C28.77 10.7, 28.05 14.11, 26.93 16.52 C25.81 18.93, 23.76 21.47, 21.11 22.69 C18.46 23.9, 14.17 24.36, 11.04 23.82 C7.9 23.28, 4.21 21.44, 2.31 19.44 C0.41 17.43, -0.69 14.45, -0.39 11.79 C-0.08 9.13, 2.05 5.4, 4.14 3.48 C6.23 1.55, 10.9 0.76, 12.14 0.25 C13.39 -0.25, 11.69 0.18, 11.62 0.44" stroke="#1971c2" stroke-width="1" fill="none"></path></g><g transform="translate(45.004977929018196 306.77196450401635) rotate(0 22.33997344970703 12.5)"><text x="22.33997344970703" y="0" font-family="Virgil, Segoe UI Emoji" font-size="20px" fill="#1971c2" text-anchor="middle" style="white-space: pre;" direction="ltr" dominant-baseline="text-before-edge">User</text></g><g stroke-linecap="round" transform="translate(370.9528637701115 255.0814830501111) rotate(0 53.00008038217288 31.719950576066907)"><path d="M0 0 C32.45 -1.01, 65.26 -2.67, 106 0 M0 0 C28.56 -0.76, 55.79 0.21, 106 0 M106 0 C107.33 15.16, 105.92 32.03, 106 63.44 M106 0 C107.46 24.05, 105.85 47.44, 106 63.44 M106 63.44 C66.68 64.87, 25.84 62.89, 0 63.44 M106 63.44 C80.53 63.74, 54.22 62.3, 0 63.44 M0 63.44 C-1.4 43.3, 1.31 21.97, 0 0 M0 63.44 C-0.46 49.09, 0.53 34.75, 0 0" stroke="#000000" stroke-width="1" fill="none"></path></g><g stroke-linecap="round"><g transform="translate(370.0613239295997 263.96418790417766) rotate(0 53.39715320015148 0)"><path d="M-0.1 -0.44 C17.36 -0.46, 87.98 -0.53, 105.69 -0.46 M-1.61 -1.71 C16.12 -1.54, 90.05 0.34, 107.83 0.83" stroke="#000000" stroke-width="1" fill="none"></path></g></g><mask></mask><g stroke-linecap="round" transform="translate(374.6728998364502 258.62209537945546) rotate(0 2.0730056787484727 2.0730056787484727)"><path d="M4.15 2.07 C4.15 2.19, 4.14 2.31, 4.11 2.43 C4.09 2.55, 4.06 2.67, 4.02 2.78 C3.98 2.89, 3.93 3.01, 3.87 3.11 C3.81 3.21, 3.74 3.31, 3.66 3.41 C3.58 3.5, 3.5 3.58, 3.41 3.66 C3.31 3.74, 3.21 3.81, 3.11 3.87 C3.01 3.93, 2.89 3.98, 2.78 4.02 C2.67 4.06, 2.55 4.09, 2.43 4.11 C2.31 4.14, 2.19 4.15, 2.07 4.15 C1.95 4.15, 1.83 4.14, 1.71 4.11 C1.59 4.09, 1.48 4.06, 1.36 4.02 C1.25 3.98, 1.14 3.93, 1.04 3.87 C0.93 3.81, 0.83 3.74, 0.74 3.66 C0.65 3.58, 0.56 3.5, 0.48 3.41 C0.41 3.31, 0.34 3.21, 0.28 3.11 C0.22 3.01, 0.17 2.89, 0.13 2.78 C0.08 2.67, 0.05 2.55, 0.03 2.43 C0.01 2.31, 0 2.19, 0 2.07 C0 1.95, 0.01 1.83, 0.03 1.71 C0.05 1.59, 0.08 1.48, 0.13 1.36 C0.17 1.25, 0.22 1.14, 0.28 1.04 C0.34 0.93, 0.41 0.83, 0.48 0.74 C0.56 0.65, 0.65 0.56, 0.74 0.48 C0.83 0.41, 0.93 0.34, 1.04 0.28 C1.14 0.22, 1.25 0.17, 1.36 0.13 C1.48 0.08, 1.59 0.05, 1.71 0.03 C1.83 0.01, 1.95 0, 2.07 0 C2.19 0, 2.31 0.01, 2.43 0.03 C2.55 0.05, 2.67 0.08, 2.78 0.13 C2.89 0.17, 3.01 0.22, 3.11 0.28 C3.21 0.34, 3.31 0.41, 3.41 0.48 C3.5 0.56, 3.58 0.65, 3.66 0.74 C3.74 0.83, 3.81 0.93, 3.87 1.04 C3.93 1.14, 3.98 1.25, 4.02 1.36 C4.06 1.48, 4.09 1.59, 4.11 1.71 C4.14 1.83, 4.14 2.01, 4.15 2.07 C4.15 2.13, 4.15 2.01, 4.15 2.07" stroke="none" stroke-width="0" fill="#fa5252"></path><path d="M4.15 2.07 C4.15 2.19, 4.14 2.31, 4.11 2.43 C4.09 2.55, 4.06 2.67, 4.02 2.78 C3.98 2.89, 3.93 3.01, 3.87 3.11 C3.81 3.21, 3.74 3.31, 3.66 3.41 C3.58 3.5, 3.5 3.58, 3.41 3.66 C3.31 3.74, 3.21 3.81, 3.11 3.87 C3.01 3.93, 2.89 3.98, 2.78 4.02 C2.67 4.06, 2.55 4.09, 2.43 4.11 C2.31 4.14, 2.19 4.15, 2.07 4.15 C1.95 4.15, 1.83 4.14, 1.71 4.11 C1.59 4.09, 1.48 4.06, 1.36 4.02 C1.25 3.98, 1.14 3.93, 1.04 3.87 C0.93 3.81, 0.83 3.74, 0.74 3.66 C0.65 3.58, 0.56 3.5, 0.48 3.41 C0.41 3.31, 0.34 3.21, 0.28 3.11 C0.22 3.01, 0.17 2.89, 0.13 2.78 C0.08 2.67, 0.05 2.55, 0.03 2.43 C0.01 2.31, 0 2.19, 0 2.07 C0 1.95, 0.01 1.83, 0.03 1.71 C0.05 1.59, 0.08 1.48, 0.13 1.36 C0.17 1.25, 0.22 1.14, 0.28 1.04 C0.34 0.93, 0.41 0.83, 0.48 0.74 C0.56 0.65, 0.65 0.56, 0.74 0.48 C0.83 0.41, 0.93 0.34, 1.04 0.28 C1.14 0.22, 1.25 0.17, 1.36 0.13 C1.48 0.08, 1.59 0.05, 1.71 0.03 C1.83 0.01, 1.95 0, 2.07 0 C2.19 0, 2.31 0.01, 2.43 0.03 C2.55 0.05, 2.67 0.08, 2.78 0.13 C2.89 0.17, 3.01 0.22, 3.11 0.28 C3.21 0.34, 3.31 0.41, 3.41 0.48 C3.5 0.56, 3.58 0.65, 3.66 0.74 C3.74 0.83, 3.81 0.93, 3.87 1.04 C3.93 1.14, 3.98 1.25, 4.02 1.36 C4.06 1.48, 4.09 1.59, 4.11 1.71 C4.14 1.83, 4.14 2.01, 4.15 2.07 C4.15 2.13, 4.15 2.01, 4.15 2.07" stroke="#000000" stroke-width="1" fill="none"></path></g><g stroke-linecap="round" transform="translate(383.17942723901473 258.62209537945546) rotate(0 2.0730056787484727 2.0730056787484727)"><path d="M4.15 2.07 C4.15 2.19, 4.14 2.31, 4.11 2.43 C4.09 2.55, 4.06 2.67, 4.02 2.78 C3.98 2.89, 3.93 3.01, 3.87 3.11 C3.81 3.21, 3.74 3.31, 3.66 3.41 C3.58 3.5, 3.5 3.58, 3.41 3.66 C3.31 3.74, 3.21 3.81, 3.11 3.87 C3.01 3.93, 2.89 3.98, 2.78 4.02 C2.67 4.06, 2.55 4.09, 2.43 4.11 C2.31 4.14, 2.19 4.15, 2.07 4.15 C1.95 4.15, 1.83 4.14, 1.71 4.11 C1.59 4.09, 1.48 4.06, 1.36 4.02 C1.25 3.98, 1.14 3.93, 1.04 3.87 C0.93 3.81, 0.83 3.74, 0.74 3.66 C0.65 3.58, 0.56 3.5, 0.48 3.41 C0.41 3.31, 0.34 3.21, 0.28 3.11 C0.22 3.01, 0.17 2.89, 0.13 2.78 C0.08 2.67, 0.05 2.55, 0.03 2.43 C0.01 2.31, 0 2.19, 0 2.07 C0 1.95, 0.01 1.83, 0.03 1.71 C0.05 1.59, 0.08 1.48, 0.13 1.36 C0.17 1.25, 0.22 1.14, 0.28 1.04 C0.34 0.93, 0.41 0.83, 0.48 0.74 C0.56 0.65, 0.65 0.56, 0.74 0.48 C0.83 0.41, 0.93 0.34, 1.04 0.28 C1.14 0.22, 1.25 0.17, 1.36 0.13 C1.48 0.08, 1.59 0.05, 1.71 0.03 C1.83 0.01, 1.95 0, 2.07 0 C2.19 0, 2.31 0.01, 2.43 0.03 C2.55 0.05, 2.67 0.08, 2.78 0.13 C2.89 0.17, 3.01 0.22, 3.11 0.28 C3.21 0.34, 3.31 0.41, 3.41 0.48 C3.5 0.56, 3.58 0.65, 3.66 0.74 C3.74 0.83, 3.81 0.93, 3.87 1.04 C3.93 1.14, 3.98 1.25, 4.02 1.36 C4.06 1.48, 4.09 1.59, 4.11 1.71 C4.14 1.83, 4.14 2.01, 4.15 2.07 C4.15 2.13, 4.15 2.01, 4.15 2.07" stroke="none" stroke-width="0" fill="#fab005"></path><path d="M4.15 2.07 C4.15 2.19, 4.14 2.31, 4.11 2.43 C4.09 2.55, 4.06 2.67, 4.02 2.78 C3.98 2.89, 3.93 3.01, 3.87 3.11 C3.81 3.21, 3.74 3.31, 3.66 3.41 C3.58 3.5, 3.5 3.58, 3.41 3.66 C3.31 3.74, 3.21 3.81, 3.11 3.87 C3.01 3.93, 2.89 3.98, 2.78 4.02 C2.67 4.06, 2.55 4.09, 2.43 4.11 C2.31 4.14, 2.19 4.15, 2.07 4.15 C1.95 4.15, 1.83 4.14, 1.71 4.11 C1.59 4.09, 1.48 4.06, 1.36 4.02 C1.25 3.98, 1.14 3.93, 1.04 3.87 C0.93 3.81, 0.83 3.74, 0.74 3.66 C0.65 3.58, 0.56 3.5, 0.48 3.41 C0.41 3.31, 0.34 3.21, 0.28 3.11 C0.22 3.01, 0.17 2.89, 0.13 2.78 C0.08 2.67, 0.05 2.55, 0.03 2.43 C0.01 2.31, 0 2.19, 0 2.07 C0 1.95, 0.01 1.83, 0.03 1.71 C0.05 1.59, 0.08 1.48, 0.13 1.36 C0.17 1.25, 0.22 1.14, 0.28 1.04 C0.34 0.93, 0.41 0.83, 0.48 0.74 C0.56 0.65, 0.65 0.56, 0.74 0.48 C0.83 0.41, 0.93 0.34, 1.04 0.28 C1.14 0.22, 1.25 0.17, 1.36 0.13 C1.48 0.08, 1.59 0.05, 1.71 0.03 C1.83 0.01, 1.95 0, 2.07 0 C2.19 0, 2.31 0.01, 2.43 0.03 C2.55 0.05, 2.67 0.08, 2.78 0.13 C2.89 0.17, 3.01 0.22, 3.11 0.28 C3.21 0.34, 3.31 0.41, 3.41 0.48 C3.5 0.56, 3.58 0.65, 3.66 0.74 C3.74 0.83, 3.81 0.93, 3.87 1.04 C3.93 1.14, 3.98 1.25, 4.02 1.36 C4.06 1.48, 4.09 1.59, 4.11 1.71 C4.14 1.83, 4.14 2.01, 4.15 2.07 C4.15 2.13, 4.15 2.01, 4.15 2.07" stroke="#000000" stroke-width="1" fill="none"></path></g><g stroke-linecap="round" transform="translate(392.05954771136845 258.99568844924465) rotate(0 2.0730056787484727 2.0730056787484727)"><path d="M4.15 2.07 C4.15 2.19, 4.14 2.31, 4.11 2.43 C4.09 2.55, 4.06 2.67, 4.02 2.78 C3.98 2.89, 3.93 3.01, 3.87 3.11 C3.81 3.21, 3.74 3.31, 3.66 3.41 C3.58 3.5, 3.5 3.58, 3.41 3.66 C3.31 3.74, 3.21 3.81, 3.11 3.87 C3.01 3.93, 2.89 3.98, 2.78 4.02 C2.67 4.06, 2.55 4.09, 2.43 4.11 C2.31 4.14, 2.19 4.15, 2.07 4.15 C1.95 4.15, 1.83 4.14, 1.71 4.11 C1.59 4.09, 1.48 4.06, 1.36 4.02 C1.25 3.98, 1.14 3.93, 1.04 3.87 C0.93 3.81, 0.83 3.74, 0.74 3.66 C0.65 3.58, 0.56 3.5, 0.48 3.41 C0.41 3.31, 0.34 3.21, 0.28 3.11 C0.22 3.01, 0.17 2.89, 0.13 2.78 C0.08 2.67, 0.05 2.55, 0.03 2.43 C0.01 2.31, 0 2.19, 0 2.07 C0 1.95, 0.01 1.83, 0.03 1.71 C0.05 1.59, 0.08 1.48, 0.13 1.36 C0.17 1.25, 0.22 1.14, 0.28 1.04 C0.34 0.93, 0.41 0.83, 0.48 0.74 C0.56 0.65, 0.65 0.56, 0.74 0.48 C0.83 0.41, 0.93 0.34, 1.04 0.28 C1.14 0.22, 1.25 0.17, 1.36 0.13 C1.48 0.08, 1.59 0.05, 1.71 0.03 C1.83 0.01, 1.95 0, 2.07 0 C2.19 0, 2.31 0.01, 2.43 0.03 C2.55 0.05, 2.67 0.08, 2.78 0.13 C2.89 0.17, 3.01 0.22, 3.11 0.28 C3.21 0.34, 3.31 0.41, 3.41 0.48 C3.5 0.56, 3.58 0.65, 3.66 0.74 C3.74 0.83, 3.81 0.93, 3.87 1.04 C3.93 1.14, 3.98 1.25, 4.02 1.36 C4.06 1.48, 4.09 1.59, 4.11 1.71 C4.14 1.83, 4.14 2.01, 4.15 2.07 C4.15 2.13, 4.15 2.01, 4.15 2.07" stroke="none" stroke-width="0" fill="#40c057"></path><path d="M4.15 2.07 C4.15 2.19, 4.14 2.31, 4.11 2.43 C4.09 2.55, 4.06 2.67, 4.02 2.78 C3.98 2.89, 3.93 3.01, 3.87 3.11 C3.81 3.21, 3.74 3.31, 3.66 3.41 C3.58 3.5, 3.5 3.58, 3.41 3.66 C3.31 3.74, 3.21 3.81, 3.11 3.87 C3.01 3.93, 2.89 3.98, 2.78 4.02 C2.67 4.06, 2.55 4.09, 2.43 4.11 C2.31 4.14, 2.19 4.15, 2.07 4.15 C1.95 4.15, 1.83 4.14, 1.71 4.11 C1.59 4.09, 1.48 4.06, 1.36 4.02 C1.25 3.98, 1.14 3.93, 1.04 3.87 C0.93 3.81, 0.83 3.74, 0.74 3.66 C0.65 3.58, 0.56 3.5, 0.48 3.41 C0.41 3.31, 0.34 3.21, 0.28 3.11 C0.22 3.01, 0.17 2.89, 0.13 2.78 C0.08 2.67, 0.05 2.55, 0.03 2.43 C0.01 2.31, 0 2.19, 0 2.07 C0 1.95, 0.01 1.83, 0.03 1.71 C0.05 1.59, 0.08 1.48, 0.13 1.36 C0.17 1.25, 0.22 1.14, 0.28 1.04 C0.34 0.93, 0.41 0.83, 0.48 0.74 C0.56 0.65, 0.65 0.56, 0.74 0.48 C0.83 0.41, 0.93 0.34, 1.04 0.28 C1.14 0.22, 1.25 0.17, 1.36 0.13 C1.48 0.08, 1.59 0.05, 1.71 0.03 C1.83 0.01, 1.95 0, 2.07 0 C2.19 0, 2.31 0.01, 2.43 0.03 C2.55 0.05, 2.67 0.08, 2.78 0.13 C2.89 0.17, 3.01 0.22, 3.11 0.28 C3.21 0.34, 3.31 0.41, 3.41 0.48 C3.5 0.56, 3.58 0.65, 3.66 0.74 C3.74 0.83, 3.81 0.93, 3.87 1.04 C3.93 1.14, 3.98 1.25, 4.02 1.36 C4.06 1.48, 4.09 1.59, 4.11 1.71 C4.14 1.83, 4.14 2.01, 4.15 2.07 C4.15 2.13, 4.15 2.01, 4.15 2.07" stroke="#000000" stroke-width="1" fill="none"></path></g><g stroke-opacity="0.9" fill-opacity="0.9" stroke-linecap="round" transform="translate(405.3440338370338 272.30115173924383) rotate(0 17.70492850458504 17.704928504585055)"><path d="M15.88 0.19 C19.42 -0.42, 24.49 0.61, 27.69 2.84 C30.9 5.07, 34.06 9.83, 35.1 13.55 C36.14 17.28, 35.63 21.82, 33.94 25.19 C32.26 28.56, 28.52 32.21, 25 33.76 C21.48 35.31, 16.51 35.42, 12.83 34.51 C9.15 33.6, 5.04 31.33, 2.9 28.28 C0.76 25.24, -0.36 20.15, -0.01 16.22 C0.35 12.29, 2.21 7.37, 5.04 4.7 C7.88 2.02, 15.06 0.86, 17.03 0.19 C19 -0.47, 16.83 0.47, 16.87 0.71 M17.07 0.28 C20.58 0.02, 25.8 1.39, 28.83 3.78 C31.86 6.17, 34.51 10.86, 35.27 14.62 C36.02 18.39, 35.19 23.08, 33.36 26.38 C31.52 29.67, 27.81 33.13, 24.25 34.39 C20.69 35.65, 15.67 35.26, 12.02 33.95 C8.38 32.64, 4.26 29.62, 2.37 26.54 C0.48 23.45, 0.05 19.18, 0.67 15.43 C1.29 11.68, 3.23 6.71, 6.11 4.03 C8.99 1.35, 16.12 0.01, 17.94 -0.67 C19.76 -1.35, 17.08 -0.57, 17.03 -0.04" stroke="none" stroke-width="0" fill="#04aaf7"></path><path d="M16.15 -0.2 C19.7 -0.79, 24.4 0.61, 27.55 2.85 C30.71 5.1, 33.99 9.52, 35.06 13.27 C36.14 17.02, 35.56 22, 34.01 25.33 C32.47 28.66, 29.18 31.58, 25.8 33.24 C22.43 34.91, 17.5 36.14, 13.75 35.29 C9.99 34.45, 5.52 31.26, 3.27 28.18 C1.03 25.1, 0 20.64, 0.31 16.81 C0.61 12.99, 2.42 8.12, 5.11 5.25 C7.79 2.38, 14.39 0.35, 16.41 -0.41 C18.44 -1.17, 17.13 0.27, 17.27 0.68 M15.55 -0.31 C19.1 -0.98, 24.21 1.19, 27.44 3.19 C30.66 5.19, 33.81 8.18, 34.87 11.68 C35.93 15.18, 35.36 20.52, 33.8 24.19 C32.24 27.86, 28.76 31.75, 25.51 33.68 C22.25 35.61, 17.97 36.5, 14.26 35.77 C10.54 35.04, 5.59 32.47, 3.21 29.29 C0.84 26.1, -0.24 20.6, 0.02 16.63 C0.27 12.67, 2.12 8.21, 4.74 5.48 C7.37 2.76, 14.03 1.08, 15.77 0.29 C17.51 -0.5, 15.36 0.38, 15.17 0.74" stroke="#000000" stroke-width="1" fill="none"></path></g><g stroke-linecap="round"><g transform="translate(427.78854159941244 285.7491681932705) rotate(0 -2.744754926284827 4.930945085541964)" fill-rule="evenodd"><path d="M0 0 C-0.25 -0.06, -0.47 0.52, -1.52 -0.34 C-2.56 -1.21, -4.96 -4.66, -6.28 -5.2 C-7.59 -5.74, -8.72 -4.8, -9.41 -3.6 C-10.11 -2.41, -10.47 0.44, -10.45 1.97 C-10.44 3.5, -8.68 4.69, -9.34 5.59 C-10.01 6.49, -13.62 6.41, -14.44 7.37 C-15.26 8.32, -14.96 10.69, -14.26 11.31 C-13.56 11.93, -11.44 11.64, -10.26 11.07 C-9.09 10.49, -8.42 7.23, -7.21 7.86 C-6 8.48, -4.14 13.61, -3 14.81 C-1.86 16.01, -0.32 16.87, -0.34 15.06 C-0.37 13.26, -3.38 5.89, -3.13 3.98 C-2.88 2.07, 0.19 3.46, 1.15 3.6 C2.11 3.75, 1.54 4.65, 2.62 4.86 C3.71 5.07, 6.6 5.59, 7.66 4.86 C8.71 4.14, 9.65 1.18, 8.95 0.53 C8.26 -0.13, 4.23 1.8, 3.5 0.92 C2.76 0.04, 4.79 -3.88, 4.55 -4.77 C4.31 -5.67, 2.84 -5.1, 2.05 -4.43 C1.26 -3.76, 0.14 -1.5, -0.2 -0.77 C-0.54 -0.03, -0.03 -0.13, 0 0" stroke="none" stroke-width="0" fill="#40c057" fill-rule="evenodd"></path><path d="M0 0 C-0.25 -0.06, -0.47 0.52, -1.52 -0.34 C-2.56 -1.21, -4.96 -4.66, -6.28 -5.2 C-7.59 -5.74, -8.72 -4.8, -9.41 -3.6 C-10.11 -2.41, -10.47 0.44, -10.45 1.97 C-10.44 3.5, -8.68 4.69, -9.34 5.59 C-10.01 6.49, -13.62 6.41, -14.44 7.37 C-15.26 8.32, -14.96 10.69, -14.26 11.31 C-13.56 11.93, -11.44 11.64, -10.26 11.07 C-9.09 10.49, -8.42 7.23, -7.21 7.86 C-6 8.48, -4.14 13.61, -3 14.81 C-1.86 16.01, -0.32 16.87, -0.34 15.06 C-0.37 13.26, -3.38 5.89, -3.13 3.98 C-2.88 2.07, 0.19 3.46, 1.15 3.6 C2.11 3.75, 1.54 4.65, 2.62 4.86 C3.71 5.07, 6.6 5.59, 7.66 4.86 C8.71 4.14, 9.65 1.18, 8.95 0.53 C8.26 -0.13, 4.23 1.8, 3.5 0.92 C2.76 0.04, 4.79 -3.88, 4.55 -4.77 C4.31 -5.67, 2.84 -5.1, 2.05 -4.43 C1.26 -3.76, 0.14 -1.5, -0.2 -0.77 C-0.54 -0.03, -0.03 -0.13, 0 0 M0 0 C-0.25 -0.06, -0.47 0.52, -1.52 -0.34 C-2.56 -1.21, -4.96 -4.66, -6.28 -5.2 C-7.59 -5.74, -8.72 -4.8, -9.41 -3.6 C-10.11 -2.41, -10.47 0.44, -10.45 1.97 C-10.44 3.5, -8.68 4.69, -9.34 5.59 C-10.01 6.49, -13.62 6.41, -14.44 7.37 C-15.26 8.32, -14.96 10.69, -14.26 11.31 C-13.56 11.93, -11.44 11.64, -10.26 11.07 C-9.09 10.49, -8.42 7.23, -7.21 7.86 C-6 8.48, -4.14 13.61, -3 14.81 C-1.86 16.01, -0.32 16.87, -0.34 15.06 C-0.37 13.26, -3.38 5.89, -3.13 3.98 C-2.88 2.07, 0.19 3.46, 1.15 3.6 C2.11 3.75, 1.54 4.65, 2.62 4.86 C3.71 5.07, 6.6 5.59, 7.66 4.86 C8.71 4.14, 9.65 1.18, 8.95 0.53 C8.26 -0.13, 4.23 1.8, 3.5 0.92 C2.76 0.04, 4.79 -3.88, 4.55 -4.77 C4.31 -5.67, 2.84 -5.1, 2.05 -4.43 C1.26 -3.76, 0.14 -1.5, -0.2 -0.77 C-0.54 -0.03, -0.03 -0.13, 0 0" stroke="#087f5b" stroke-width="1" fill="none"></path></g></g><mask></mask><g stroke-linecap="round"><g stroke-opacity="0.9" fill-opacity="0.9" transform="translate(406.2218679422097 289.6768267419401) rotate(0 17.445868016505017 0)"><path d="M-0.26 0.35 C5.54 0.33, 28.74 -0.05, 34.56 -0.04 M0.61 0.05 C6.6 0.12, 30.02 0.73, 35.63 0.64" stroke="#000000" stroke-width="1" fill="none"></path></g></g><mask></mask><g stroke-linecap="round"><g stroke-opacity="0.9" fill-opacity="0.9" transform="translate(410.4452765787369 276.883477698147) rotate(0 12.150781197648826 2.149378595913163)"><path d="M0 0 C0.11 0.31, 0.07 1.31, 0.64 1.89 C1.21 2.47, 2.33 3.05, 3.4 3.47 C4.47 3.89, 5.5 4.25, 7.08 4.43 C8.65 4.6, 10.75 4.6, 12.83 4.52 C14.91 4.43, 17.77 4.38, 19.55 3.91 C21.32 3.43, 22.68 2.37, 23.47 1.69 C24.26 1, 24.16 0.1, 24.3 -0.22 M0 0 C0.11 0.31, 0.07 1.31, 0.64 1.89 C1.21 2.47, 2.33 3.05, 3.4 3.47 C4.47 3.89, 5.5 4.25, 7.08 4.43 C8.65 4.6, 10.75 4.6, 12.83 4.52 C14.91 4.43, 17.77 4.38, 19.55 3.91 C21.32 3.43, 22.68 2.37, 23.47 1.69 C24.26 1, 24.16 0.1, 24.3 -0.22" stroke="#000000" stroke-width="1" fill="none"></path></g></g><mask></mask><g stroke-opacity="0.9" fill-opacity="0.9" stroke-linecap="round" transform="translate(417.13757182491537 271.155202666327) rotate(0 6.435592615850965 18.576121798531275)"><path d="M8.23 0.13 C9.55 0.76, 11.15 4.6, 11.9 7.86 C12.65 11.12, 12.83 15.72, 12.74 19.68 C12.66 23.64, 12.29 28.76, 11.39 31.62 C10.49 34.49, 8.8 36.51, 7.35 36.86 C5.89 37.2, 3.87 35.78, 2.64 33.68 C1.42 31.58, 0.29 27.96, 0.01 24.27 C-0.28 20.57, 0.41 15.17, 0.95 11.49 C1.5 7.81, 2.03 3.92, 3.25 2.16 C4.47 0.41, 7.46 1.05, 8.28 0.95 C9.09 0.86, 8.1 1.29, 8.12 1.59 M4.82 0.62 C6.18 -0.1, 8.7 1.24, 9.88 3.31 C11.07 5.38, 11.5 9.47, 11.93 13.02 C12.36 16.56, 12.82 21.03, 12.47 24.58 C12.12 28.13, 10.94 32.27, 9.84 34.33 C8.73 36.39, 7.25 37.57, 5.85 36.95 C4.44 36.32, 2.51 33.6, 1.41 30.59 C0.31 27.59, -0.65 22.9, -0.75 18.92 C-0.85 14.94, -0.16 9.82, 0.81 6.72 C1.79 3.63, 4.33 1.44, 5.12 0.35 C5.9 -0.74, 5.4 -0.05, 5.5 0.19" stroke="#000000" stroke-width="1" fill="none"></path></g><g stroke-linecap="round"><g stroke-opacity="0.9" fill-opacity="0.9" transform="translate(411.70181617822055 303.1896706671629) rotate(0 12.150781197648826 -2.218950176309704)"><path d="M0 0 C0.57 -0.6, 2.22 -2.82, 3.4 -3.58 C4.58 -4.34, 5.5 -4.39, 7.08 -4.57 C8.65 -4.75, 10.75 -4.75, 12.83 -4.66 C14.91 -4.57, 17.77 -4.52, 19.55 -4.03 C21.32 -3.55, 22.68 -2.45, 23.47 -1.74 C24.26 -1.03, 24.16 -0.1, 24.3 0.22 M0 0 C0.57 -0.6, 2.22 -2.82, 3.4 -3.58 C4.58 -4.34, 5.5 -4.39, 7.08 -4.57 C8.65 -4.75, 10.75 -4.75, 12.83 -4.66 C14.91 -4.57, 17.77 -4.52, 19.55 -4.03 C21.32 -3.55, 22.68 -2.45, 23.47 -1.74 C24.26 -1.03, 24.16 -0.1, 24.3 0.22" stroke="#000000" stroke-width="1" fill="none"></path></g></g><mask></mask><g transform="translate(350.8786615818356 225.8499999999999) rotate(0 27.769973754882812 12.5)"><text x="0" y="0" font-family="Virgil, Segoe UI Emoji" font-size="20px" fill="#1e1e1e" text-anchor="start" style="white-space: pre;" direction="ltr" dominant-baseline="text-before-edge">Vue.js</text></g><g mask="url(#mask-8Dfxina9AVB8jZIKwxwIB)" stroke-linecap="round"><g transform="translate(94.2499983239536 302.58597848505406) rotate(0 131.439331628941 1.6840279758088599)"><path d="M0 0 C43.81 0.56, 219.07 2.81, 262.88 3.37" stroke="#1971c2" stroke-width="1.5" fill="none" stroke-dasharray="8 9"></path></g><g transform="translate(94.2499983239536 302.58597848505406) rotate(0 131.439331628941 1.6840279758088599)"><path d="M239.28 11.62 C245.08 9.59, 250.87 7.56, 262.88 3.37" stroke="#1971c2" stroke-width="1.5" fill="none"></path></g><g transform="translate(94.2499983239536 302.58597848505406) rotate(0 131.439331628941 1.6840279758088599)"><path d="M239.5 -5.48 C245.24 -3.31, 250.98 -1.13, 262.88 3.37" stroke="#1971c2" stroke-width="1.5" fill="none"></path></g></g><mask id="mask-8Dfxina9AVB8jZIKwxwIB"><rect x="0" y="0" fill="#fff" width="457.1286615818356" height="405.9540344366718"></rect><rect x="178.81432995289464" y="292.27000646086293" fill="#000" width="93.75" height="24" opacity="1"></rect></mask><g transform="translate(178.8143299528947 292.27000646086293) rotate(0 46.87499999999997 11.999999999999986)"><text x="46.875" y="0" font-family="Cascadia, Segoe UI Emoji" font-size="20px" fill="#1971c2" text-anchor="middle" style="white-space: pre;" direction="ltr" dominant-baseline="text-before-edge">Requests</text></g><g transform="translate(295.8786615818356 10) rotate(0 200.5020751953125 22.5)"><text x="0" y="0" font-family="Virgil, Segoe UI Emoji" font-size="36px" fill="#1971c2" text-anchor="start" style="white-space: pre;" direction="ltr" dominant-baseline="text-before-edge">Monolithic architecture</text></g></svg>